<?xml version="1.0" encoding="UTF-8"?>
<svg version="1.1" xmlns="http://www.w3.org/2000/svg" width="252" height="184">
<path d="M0 0 C0 0.66 0 1.32 0 2 C1.08861328 2.37125 1.08861328 2.37125 2.19921875 2.75 C16.43743494 9.10457347 25.0985008 25.34957576 31 39 C32.41881753 42.74134049 33 44.95513927 33 49 C30.03 49 27.06 49 24 49 C22.68579737 46.06325106 21.37357208 43.12564615 20.0625 40.1875 C19.68931641 39.35412109 19.31613281 38.52074219 18.93164062 37.66210938 C18.57392578 36.85966797 18.21621094 36.05722656 17.84765625 35.23046875 C17.51773682 34.49207764 17.18781738 33.75368652 16.84790039 32.99291992 C16 31 16 31 15 28 C13.66195312 28.433125 13.66195312 28.433125 12.296875 28.875 C11.12640625 29.24625 9.9559375 29.6175 8.75 30 C7.58984375 30.37125 6.4296875 30.7425 5.234375 31.125 C2 32 2 32 -2 32 C-1.71125 33.19496094 -1.4225 34.38992187 -1.125 35.62109375 C-0.74948018 37.22644099 -0.37450956 38.83191677 0 40.4375 C0.19078125 41.22060547 0.3815625 42.00371094 0.578125 42.81054688 C3.0856486 53.6914082 3.0856486 53.6914082 2 59 C-0.23046875 61.33984375 -0.23046875 61.33984375 -3.1875 62.9375 C-4.15042969 63.48277344 -5.11335938 64.02804688 -6.10546875 64.58984375 C-7.06066406 65.05519531 -8.01585937 65.52054687 -9 66 C-9.75925781 66.38929687 -10.51851563 66.77859375 -11.30078125 67.1796875 C-15.21181552 68.36827968 -18.93742049 68.25015342 -23 68.1875 C-23.7940625 68.18685547 -24.588125 68.18621094 -25.40625 68.18554688 C-29.42279651 68.15542278 -33.06203891 67.86271984 -37 67 C-36.98952637 67.62567871 -36.97905273 68.25135742 -36.96826172 68.89599609 C-36.92676809 71.7222901 -36.90069527 74.54852011 -36.875 77.375 C-36.85824219 78.35984375 -36.84148437 79.3446875 -36.82421875 80.359375 C-36.81777344 81.30039063 -36.81132813 82.24140625 -36.8046875 83.2109375 C-36.79421387 84.08024902 -36.78374023 84.94956055 -36.77294922 85.84521484 C-37 88 -37 88 -39 90 C-41.5625 90.1875 -41.5625 90.1875 -44 90 C-45 89 -45 89 -45.11352539 86.86694336 C-45.10567017 85.49227905 -45.10567017 85.49227905 -45.09765625 84.08984375 C-45.09282227 82.60581055 -45.09282227 82.60581055 -45.08789062 81.09179688 C-45.07532227 79.53041992 -45.07532227 79.53041992 -45.0625 77.9375 C-45.05798828 76.89271484 -45.05347656 75.84792969 -45.04882812 74.77148438 C-45.03699913 72.1809334 -45.02051689 69.59049441 -45 67 C-46.10226929 67.23468994 -46.10226929 67.23468994 -47.22680664 67.47412109 C-57.65623971 69.4518479 -69.02093019 69.94603714 -78.25 64.125 C-81.23010932 62.03152103 -83.55741072 60.09473104 -84.95703125 56.6328125 C-85.07927273 53.87106062 -84.66821851 51.68426412 -84 49 C-83.773125 47.87207031 -83.54625 46.74414062 -83.3125 45.58203125 C-82.40279498 41.31305091 -81.38046865 37.14140596 -80 33 C-80.89203125 32.79503906 -81.7840625 32.59007812 -82.703125 32.37890625 C-83.87359375 32.10949219 -85.0440625 31.84007812 -86.25 31.5625 C-87.41015625 31.29566406 -88.5703125 31.02882812 -89.765625 30.75390625 C-92.18349761 30.19032 -94.59443304 29.61330049 -97 29 C-100.39247043 35.53467665 -103.37933326 42.11891972 -106 49 C-108.97 49 -111.94 49 -115 49 C-115 42.43154059 -113.15494394 37.64750809 -110.25 31.875 C-109.74726562 30.87243164 -109.74726562 30.87243164 -109.234375 29.84960938 C-106.84905997 25.26420264 -104.19283143 21.07033145 -101 17 C-100.34 17 -99.68 17 -99 17 C-99 16.34 -99 15.68 -99 15 C-98.34 15 -97.68 15 -97 15 C-96.773125 14.443125 -96.54625 13.88625 -96.3125 13.3125 C-94.62449964 10.33840412 -92.53323483 8.27991135 -90 6 C-89.34 6 -88.68 6 -88 6 C-88 5.34 -88 4.68 -88 4 C-63.37367327 -17.20600357 -26.93787095 -13.65687411 0 0 Z M-50.625 3.375 C-51.25664063 3.81585938 -51.88828125 4.25671875 -52.5390625 4.7109375 C-53.02117187 5.13632812 -53.50328125 5.56171875 -54 6 C-54 6.66 -54 7.32 -54 8 C-54.57492188 8.23203125 -55.14984375 8.4640625 -55.7421875 8.703125 C-58.55852154 10.32081168 -60.10370322 12.2137721 -62.125 14.75 C-62.80820313 15.59046875 -63.49140625 16.4309375 -64.1953125 17.296875 C-66.09064485 20.13577108 -67.07223913 22.72892558 -68 26 C-62.68650186 27.77349347 -58.13847789 28.25658306 -52.5625 28.125 C-48.8190625 28.063125 -48.8190625 28.063125 -45 28 C-45 19.09 -45 10.18 -45 1 C-47.59121224 1 -48.53083983 1.88409584 -50.625 3.375 Z M-37 1 C-37 9.91 -37 18.82 -37 28 C-25.95520901 28.12426607 -25.95520901 28.12426607 -15 27 C-14.15107767 25.28014359 -14.15107767 25.28014359 -14 23 C-17.51300328 16.7639545 -22.94073052 8.35308983 -30 6 C-30 5.34 -30 4.68 -30 4 C-33.22114157 1.68407978 -33.22114157 1.68407978 -37 1 Z M-63 2 C-68.61 4.64 -74.22 7.28 -80 10 C-80 10.66 -80 11.32 -80 12 C-80.66 12 -81.32 12 -82 12 C-82 12.66 -82 13.32 -82 14 C-83.65 14.66 -85.3 15.32 -87 16 C-87 16.66 -87 17.32 -87 18 C-87.66 18 -88.32 18 -89 18 C-89.66 19.32 -90.32 20.64 -91 22 C-86.38 22.99 -81.76 23.98 -77 25 C-75.53983725 22.58442212 -74.08181403 20.16759629 -72.625 17.75 C-72.2125 17.06808594 -71.8 16.38617188 -71.375 15.68359375 C-70.97539063 15.01972656 -70.57578125 14.35585938 -70.1640625 13.671875 C-69.79748535 13.0644043 -69.4309082 12.45693359 -69.05322266 11.83105469 C-67.95522611 9.92215943 -66.9662719 7.97837488 -66 6 C-65.34 6 -64.68 6 -64 6 C-64 5.34 -64 4.68 -64 4 C-63.34 4 -62.68 4 -62 4 C-62.33 3.34 -62.66 2.68 -63 2 Z M-20 3 C-18.71937515 4.7074998 -17.38232443 6.37373596 -16 8 C-15.34 8 -14.68 8 -14 8 C-13.773125 8.66 -13.54625 9.32 -13.3125 10 C-11.87370695 13.28866982 -10.08501729 16.13739203 -8.12109375 19.1328125 C-7 21 -7 21 -6 24 C-0.72684667 23.5547115 4.01770224 22.91626837 9 21 C6.19195732 18.03595495 3.81684226 15.55500981 0 14 C0 13.34 0 12.68 0 12 C-2.20200532 10.67578036 -4.41061826 9.36573271 -6.625 8.0625 C-7.24246094 7.68931641 -7.85992187 7.31613281 -8.49609375 6.93164062 C-12.33397792 4.68950829 -15.49211351 3.43691823 -20 3 Z M-72 34 C-74.6071162 42.19379376 -76 50.39812991 -76 59 C-65.77 59 -55.54 59 -45 59 C-45 51.41 -45 43.82 -45 36 C-51.26655647 35.71221596 -51.26655647 35.71221596 -57.53344727 35.43188477 C-62.41669117 35.19769898 -67.17439659 34.78771853 -72 34 Z M-13.81347656 34.48022461 C-16.23933332 35.05689377 -18.49378017 35.21010037 -20.984375 35.31640625 C-21.82709961 35.35451416 -22.66982422 35.39262207 -23.53808594 35.43188477 C-25.1279834 35.49653931 -25.1279834 35.49653931 -26.75 35.5625 C-30.1325 35.706875 -33.515 35.85125 -37 36 C-37 43.59 -37 51.18 -37 59 C-26.77 59 -16.54 59 -6 59 C-6.86020096 49.50769542 -6.86020096 49.50769542 -8.5625 40.3125 C-8.83191406 39.11238281 -9.10132813 37.91226563 -9.37890625 36.67578125 C-9.58386719 35.79277344 -9.78882813 34.90976562 -10 34 C-11.990437 33.91467148 -11.990437 33.91467148 -13.81347656 34.48022461 Z " fill="#3CE9FE" transform="translate(161,17)"/>
<path d="M0 0 C9.87296695 8.96552513 15.13340618 21.07338231 16.1796875 34.265625 C16.58555207 47.16309915 12.00364871 58.98654616 4 69 C-3.37767138 76.72567474 -11.14692496 82.40801409 -22 83 C-20.77065985 79.31197956 -19.06140622 78.27643027 -16 76 C-16.34786708 74.02463255 -16.34786708 74.02463255 -17 72 C-17.66 71.67 -18.32 71.34 -19 71 C-19 69.68 -19 68.36 -19 67 C-17.02 66.34 -15.04 65.68 -13 65 C-13 64.34 -13 63.68 -13 63 C-11.700625 62.071875 -11.700625 62.071875 -10.375 61.125 C-4.90451285 56.7979876 -1.23415559 48.80865613 0 42 C0.89306345 32.21065064 -1.21372274 23.90791226 -7 16 C-7.33 15.01 -7.66 14.02 -8 13 C-8.66 13 -9.32 13 -10 13 C-10 12.34 -10 11.68 -10 11 C-10.7425 10.71125 -11.485 10.4225 -12.25 10.125 C-15 9 -15 9 -16.80078125 7.95703125 C-23.63045707 4.98496983 -31.94471907 6.63382061 -38.6875 9.0625 C-44.75162928 11.66348257 -49.78286461 15.00216679 -55 19 C-56.97580233 20.47847386 -58.9569761 21.94931418 -60.94189453 23.41552734 C-62.29886169 24.41900697 -63.65152741 25.42833323 -64.99951172 26.44384766 C-69.77711968 30 -69.77711968 30 -72 30 C-72.19980469 30.55558594 -72.39960938 31.11117187 -72.60546875 31.68359375 C-74.55291661 34.91843011 -77.33447475 36.83866294 -80.3125 39.0625 C-81.5954017 40.04341649 -82.87661579 41.02654354 -84.15625 42.01171875 C-84.80335938 42.50978027 -85.45046875 43.0078418 -86.1171875 43.52099609 C-88.92097635 45.72345367 -91.61477393 48.04489395 -94.3125 50.375 C-110.64785033 64.34931268 -127.59175985 78.2426133 -149 83 C-149.33 86.96 -149.66 90.92 -150 95 C-153.70901137 94.07274716 -155.64275883 93.1390713 -158.75 91.0625 C-159.54921875 90.53785156 -160.3484375 90.01320313 -161.171875 89.47265625 C-161.77515625 88.98667969 -162.3784375 88.50070313 -163 88 C-163 87.34 -163 86.68 -163 86 C-163.71542969 85.75121094 -164.43085938 85.50242187 -165.16796875 85.24609375 C-168.29828412 83.86875499 -170.6390415 82.18938476 -173.3125 80.0625 C-174.19550781 79.37285156 -175.07851562 78.68320313 -175.98828125 77.97265625 C-176.65214844 77.32167969 -177.31601563 76.67070312 -178 76 C-178 75.01 -178 74.02 -178 73 C-175.91271178 71.13319997 -173.8673127 69.47058144 -171.625 67.8125 C-171.02171875 67.34908203 -170.4184375 66.88566406 -169.796875 66.40820312 C-165.27937454 63 -165.27937454 63 -163 63 C-163 62.34 -163 61.68 -163 61 C-160.91796875 59.2734375 -160.91796875 59.2734375 -158.1875 57.375 C-157.29417969 56.74335938 -156.40085937 56.11171875 -155.48046875 55.4609375 C-153 54 -153 54 -150 54 C-149.67 56.97 -149.34 59.94 -149 63 C-138.85860237 60.65967747 -129.91647111 55.54193741 -121.6796875 49.21875 C-120 48 -120 48 -118 48 C-118 47.34 -118 46.68 -118 46 C-117.34 46 -116.68 46 -116 46 C-116 45.34 -116 44.68 -116 44 C-114.35 43.34 -112.7 42.68 -111 42 C-111 41.34 -111 40.68 -111 40 C-108.76658661 38.0616214 -106.52763358 36.23813481 -104.1875 34.4375 C-103.54490234 33.93025391 -102.90230469 33.42300781 -102.24023438 32.90039062 C-99.45070406 30.72947117 -97.39023304 29.13007768 -94 28 C-94 27.34 -94 26.68 -94 26 C-92.35 25.34 -90.7 24.68 -89 24 C-89 23.34 -89 22.68 -89 22 C-87.1015625 20.2734375 -87.1015625 20.2734375 -84.625 18.375 C-83.81289062 17.74335937 -83.00078125 17.11171875 -82.1640625 16.4609375 C-80 15 -80 15 -78 15 C-78 14.34 -78 13.68 -78 13 C-56.6620447 -6.60250594 -25.20937969 -20.66798409 0 0 Z " fill="#0DEEFE" transform="translate(221,79)"/>
<path d="M0 0 C6.55190498 4.82088649 12.73286756 10.11241524 18.89453125 15.41796875 C21.57805592 17.75821899 21.57805592 17.75821899 24.08203125 19.49609375 C24.61828125 19.92664063 25.15453125 20.3571875 25.70703125 20.80078125 C25.70703125 21.46078125 25.70703125 22.12078125 25.70703125 22.80078125 C27.02703125 23.46078125 28.34703125 24.12078125 29.70703125 24.80078125 C29.37403454 27.81813919 28.71886851 28.78934066 26.4921875 30.94140625 C25.59371094 31.6375 24.69523437 32.33359375 23.76953125 33.05078125 C22.87363281 33.7571875 21.97773437 34.46359375 21.0546875 35.19140625 C18.70703125 36.80078125 18.70703125 36.80078125 16.70703125 36.80078125 C16.70703125 36.14078125 16.70703125 35.48078125 16.70703125 34.80078125 C16.1346875 34.53265625 15.56234375 34.26453125 14.97265625 33.98828125 C12.62818491 32.75945489 10.58298187 31.37555949 8.45703125 29.80078125 C7.750625 29.28515625 7.04421875 28.76953125 6.31640625 28.23828125 C5.7853125 27.76390625 5.25421875 27.28953125 4.70703125 26.80078125 C4.70703125 26.14078125 4.70703125 25.48078125 4.70703125 24.80078125 C4.15402344 24.71699219 3.60101563 24.63320312 3.03125 24.546875 C-0.04246617 23.56018628 -1.96274334 21.88385355 -4.48046875 19.86328125 C-9.43819928 16.01434098 -14.585634 12.63147674 -19.98046875 9.42578125 C-21.01240356 8.80135132 -21.01240356 8.80135132 -22.06518555 8.16430664 C-29.91652175 3.57494141 -38.09652623 0.34796901 -47.29296875 1.80078125 C-55.18372249 4.24596991 -60.12004161 8.76476243 -64.29296875 15.80078125 C-68.29764447 23.45257236 -68.83279871 33.17957405 -66.56640625 41.453125 C-64.49280332 46.38425391 -61.18420695 53.35516215 -56.29296875 55.80078125 C-56.29296875 56.46078125 -56.29296875 57.12078125 -56.29296875 57.80078125 C-55.27203125 58.17203125 -55.27203125 58.17203125 -54.23046875 58.55078125 C-50.72431792 60.04276033 -47.57676507 61.86913636 -44.29296875 63.80078125 C-44.29296875 64.46078125 -44.29296875 65.12078125 -44.29296875 65.80078125 C-44.95296875 65.80078125 -45.61296875 65.80078125 -46.29296875 65.80078125 C-46.29296875 66.46078125 -46.29296875 67.12078125 -46.29296875 67.80078125 C-46.95296875 67.80078125 -47.61296875 67.80078125 -48.29296875 67.80078125 C-46.05894583 72.26882708 -43.44020814 74.12811587 -39.29296875 76.80078125 C-39.29296875 77.46078125 -39.29296875 78.12078125 -39.29296875 78.80078125 C-48.22360563 79.38321409 -55.80980565 76.51842756 -63.29296875 71.80078125 C-63.29296875 71.14078125 -63.29296875 70.48078125 -63.29296875 69.80078125 C-64.16308594 69.67123047 -64.16308594 69.67123047 -65.05078125 69.5390625 C-71.58016229 67.38914435 -75.71192006 59.43572907 -78.66796875 53.67578125 C-84.15596767 42.36253208 -85.43356294 28.57930897 -82.23046875 16.30078125 C-77.77461025 4.24251014 -68.57479067 -6.09606566 -57.33203125 -12.27734375 C-37.4619673 -21.12776525 -16.62931513 -11.10593644 0 0 Z " fill="#18EDFE" transform="translate(86.29296875,84.19921875)"/>
<path d="M0 0 C-0.99 0.33 -1.98 0.66 -3 1 C-4.3169667 2.88370471 -4.3169667 2.88370471 -5 5 C-4.505 5.99 -4.505 5.99 -4 7 C-6.31 6.34 -8.62 5.68 -11 5 C-11.33 5.66 -11.66 6.32 -12 7 C-12.495 5.515 -12.495 5.515 -13 4 C-13.99 3.505 -13.99 3.505 -15 3 C-14.505 5.475 -14.505 5.475 -14 8 C-15.32 7.67 -16.64 7.34 -18 7 C-18.495 5.02 -18.495 5.02 -19 3 C-22.04386724 2.91773332 -24.07175348 3.02391783 -27 4 C-27 13.57 -27 23.14 -27 33 C-23.844375 33.020625 -20.68875 33.04125 -17.4375 33.0625 C-15.9668811 33.07615601 -15.9668811 33.07615601 -14.46655273 33.09008789 C-9.53049598 33.10560221 -4.86436375 32.84742688 0 32 C0 32.66 0 33.32 0 34 C1.98 34 3.96 34 6 34 C6 34.66 6 35.32 6 36 C4.35 36.33 2.7 36.66 1 37 C1 37.33 1 37.66 1 38 C-5.32589627 39.13955862 -11.52278338 39.1142637 -17.9375 39.0625 C-19.53561523 39.05573242 -19.53561523 39.05573242 -21.16601562 39.04882812 C-23.77740291 39.03711787 -26.38867124 39.02071724 -29 39 C-28.75660889 40.12305542 -28.75660889 40.12305542 -28.50830078 41.26879883 C-27.85618104 44.7727679 -27.86802218 48.12532078 -27.875 51.6875 C-27.87113281 52.36361328 -27.86726563 53.03972656 -27.86328125 53.73632812 C-27.87325175 58.7465035 -27.87325175 58.7465035 -29 61 C-29.99 61 -30.98 61 -32 61 C-31.34 59.35 -30.68 57.7 -30 56 C-30.66 56 -31.32 56 -32 56 C-32 50.72 -32 45.44 -32 40 C-34.24296875 40.03480469 -34.24296875 40.03480469 -36.53125 40.0703125 C-38.52082831 40.08908211 -40.51041206 40.10728102 -42.5 40.125 C-43.48226562 40.14175781 -44.46453125 40.15851562 -45.4765625 40.17578125 C-51.35918665 40.21499874 -56.36364503 39.70432638 -62 38 C-62.66 39.98 -63.32 41.96 -64 44 C-64.99 43.67 -65.98 43.34 -67 43 C-66.979375 42.21625 -66.95875 41.4325 -66.9375 40.625 C-66.81315937 38.01885039 -66.81315937 38.01885039 -68 36 C-70.35085967 35.60493015 -70.35085967 35.60493015 -73.125 35.5 C-77.71160515 35.17110393 -81.64773497 34.45075501 -86 33 C-89.39247043 39.53467665 -92.37933326 46.11891972 -95 53 C-97.97 53 -100.94 53 -104 53 C-104 46.43154059 -102.15494394 41.64750809 -99.25 35.875 C-98.74726562 34.87243164 -98.74726562 34.87243164 -98.234375 33.84960938 C-95.84905997 29.26420264 -93.19283143 25.07033145 -90 21 C-89.34 21 -88.68 21 -88 21 C-88 20.34 -88 19.68 -88 19 C-87.34 19 -86.68 19 -86 19 C-85.773125 18.443125 -85.54625 17.88625 -85.3125 17.3125 C-83.62449964 14.33840412 -81.53323483 12.27991135 -79 10 C-78.34 10 -77.68 10 -77 10 C-77 9.34 -77 8.68 -77 8 C-58.65450933 -7.79750586 -20.76977378 -14.32539733 0 0 Z M-39.625 7.375 C-40.25664063 7.81585938 -40.88828125 8.25671875 -41.5390625 8.7109375 C-42.02117187 9.13632812 -42.50328125 9.56171875 -43 10 C-43 10.66 -43 11.32 -43 12 C-43.57492188 12.23203125 -44.14984375 12.4640625 -44.7421875 12.703125 C-47.55852154 14.32081168 -49.10370322 16.2137721 -51.125 18.75 C-51.80820313 19.59046875 -52.49140625 20.4309375 -53.1953125 21.296875 C-55.09064485 24.13577108 -56.07223913 26.72892558 -57 30 C-51.68650186 31.77349347 -47.13847789 32.25658306 -41.5625 32.125 C-37.8190625 32.063125 -37.8190625 32.063125 -34 32 C-34 23.09 -34 14.18 -34 5 C-36.59121224 5 -37.53083983 5.88409584 -39.625 7.375 Z M-52 6 C-57.61 8.64 -63.22 11.28 -69 14 C-69 14.66 -69 15.32 -69 16 C-69.66 16 -70.32 16 -71 16 C-71 16.66 -71 17.32 -71 18 C-72.65 18.66 -74.3 19.32 -76 20 C-76 20.66 -76 21.32 -76 22 C-76.66 22 -77.32 22 -78 22 C-78.66 23.32 -79.32 24.64 -80 26 C-75.38 26.99 -70.76 27.98 -66 29 C-64.53983725 26.58442212 -63.08181403 24.16759629 -61.625 21.75 C-61.2125 21.06808594 -60.8 20.38617188 -60.375 19.68359375 C-59.97539063 19.01972656 -59.57578125 18.35585938 -59.1640625 17.671875 C-58.79748535 17.0644043 -58.4309082 16.45693359 -58.05322266 15.83105469 C-56.95522611 13.92215943 -55.9662719 11.97837488 -55 10 C-54.34 10 -53.68 10 -53 10 C-53 9.34 -53 8.68 -53 8 C-52.34 8 -51.68 8 -51 8 C-51.33 7.34 -51.66 6.68 -52 6 Z " fill="#16EBFE" transform="translate(150,13)"/>
<path d="M0 0 C0 0.66 0 1.32 0 2 C0.71929687 2.26167969 1.43859375 2.52335937 2.1796875 2.79296875 C5.0953906 4.04082506 7.49662895 5.54325322 10.125 7.3125 C18.80700697 12.8946226 26.54957548 16.75064063 37 17 C37 14.36 37 11.72 37 9 C38.78417969 8.36010742 38.78417969 8.36010742 41 8 C42.73925781 8.86450195 42.73925781 8.86450195 44.453125 10.23828125 C45.38125 10.97401367 45.38125 10.97401367 46.328125 11.72460938 C46.96234375 12.24861328 47.5965625 12.77261719 48.25 13.3125 C48.8996875 13.82490234 49.549375 14.33730469 50.21875 14.86523438 C51.85952373 16.18716027 53.43572106 17.58838465 55 19 C55 19.66 55 20.32 55 21 C55.53625 21.226875 56.0725 21.45375 56.625 21.6875 C59.78500863 23.43382056 62.2676983 25.6402849 65 28 C63.70444247 31.8866726 61.29670043 33.34357112 58.125 35.6875 C57.54508301 36.12231689 56.96516602 36.55713379 56.36767578 37.00512695 C55.16995508 37.90104818 53.96989657 38.79385216 52.76757812 39.68359375 C51.09659701 40.92805924 49.44486998 42.19408054 47.796875 43.46875 C46.83265625 44.2009375 45.8684375 44.933125 44.875 45.6875 C44.00617188 46.35136719 43.13734375 47.01523438 42.2421875 47.69921875 C41.50226563 48.12847656 40.76234375 48.55773437 40 49 C39.01 48.67 38.02 48.34 37 48 C37 44.37 37 40.74 37 37 C36.18660156 36.9484375 35.37320313 36.896875 34.53515625 36.84375 C17.18611282 35.12640937 -2.3694557 25.19967467 -14 12 C-14 11.34 -14 10.68 -14 10 C-13.34 10 -12.68 10 -12 10 C-12 9.34 -12 8.68 -12 8 C-11.195625 7.731875 -10.39125 7.46375 -9.5625 7.1875 C-8.716875 6.795625 -7.87125 6.40375 -7 6 C-6.67 5.01 -6.34 4.02 -6 3 C-2.55555556 0 -2.55555556 0 0 0 Z " fill="#0CEFFE" transform="translate(137,125)"/>
<path d="M0 0 C8.34686825 3.69959444 12.30130901 11.73048961 15.77734375 19.7578125 C20.3495454 31.8821811 20.25899673 44.56177867 15.25 56.5625 C9.6529466 68.20765139 1.2307034 78.04742644 -11 83 C-13.72796403 83.6092453 -16.1949389 83.84699667 -19 84 C-17.77065985 80.31197956 -16.06140622 79.27643027 -13 77 C-13.34786708 75.02463255 -13.34786708 75.02463255 -14 73 C-14.66 72.67 -15.32 72.34 -16 72 C-16 70.68 -16 69.36 -16 68 C-13.03 67.01 -13.03 67.01 -10 66 C-10 65.34 -10 64.68 -10 64 C-8.700625 63.071875 -8.700625 63.071875 -7.375 62.125 C-1.90451285 57.7979876 1.76584441 49.80865613 3 43 C3.89306345 33.21065064 1.78627726 24.90791226 -4 17 C-4.33 16.01 -4.66 15.02 -5 14 C-5.66 14 -6.32 14 -7 14 C-7 13.34 -7 12.68 -7 12 C-8.11375 11.566875 -8.11375 11.566875 -9.25 11.125 C-12 10 -12 10 -13.625 8.9375 C-17.28278658 7.49363688 -20.85873718 7.79110876 -24.75 7.875 C-25.93916016 7.88853516 -25.93916016 7.88853516 -27.15234375 7.90234375 C-29.10169281 7.92582988 -31.05088575 7.96169863 -33 8 C-29.95318939 5.96879293 -29.39881676 5.75340125 -25.98828125 5.8046875 C-24.85229492 5.81435547 -24.85229492 5.81435547 -23.69335938 5.82421875 C-22.90767578 5.84097656 -22.12199219 5.85773438 -21.3125 5.875 C-20.51521484 5.88402344 -19.71792969 5.89304687 -18.89648438 5.90234375 C-16.930861 5.92588415 -14.96539225 5.96175453 -13 6 C-13 6.66 -13 7.32 -13 8 C-12.2575 7.7525 -11.515 7.505 -10.75 7.25 C-9.8425 7.1675 -8.935 7.085 -8 7 C-5.6875 8.9375 -5.6875 8.9375 -4 11 C-4 10.01 -4 9.02 -4 8 C-3.34 8 -2.68 8 -2 8 C-0.52952664 4.08936776 -0.52952664 4.08936776 0 0 Z " fill="#11ECFE" transform="translate(218,78)"/>
<path d="M0 0 C14.08352968 -0.35159991 14.08352968 -0.35159991 21 2 C22.45515671 2.1924392 23.91400708 2.35853062 25.375 2.5 C26.57125 2.665 27.7675 2.83 29 3 C29.495 3.99 29.495 3.99 30 5 C29.01 5 28.02 5 27 5 C25.89163577 6.88316159 25.89163577 6.88316159 25 9 C25.495 9.99 25.495 9.99 26 11 C23.69 10.34 21.38 9.68 19 9 C18.67 9.66 18.34 10.32 18 11 C17.505 9.515 17.505 9.515 17 8 C16.34 7.67 15.68 7.34 15 7 C15.495 9.475 15.495 9.475 16 12 C14.68 11.67 13.36 11.34 12 11 C11.505 9.02 11.505 9.02 11 7 C7.95613276 6.91773332 5.92824652 7.02391783 3 8 C3 17.57 3 27.14 3 37 C6.155625 37.020625 9.31125 37.04125 12.5625 37.0625 C13.5429126 37.071604 14.5233252 37.08070801 15.53344727 37.09008789 C20.46950402 37.10560221 25.13563625 36.84742688 30 36 C30 36.66 30 37.32 30 38 C31.98 38 33.96 38 36 38 C36 38.66 36 39.32 36 40 C34.35 40.33 32.7 40.66 31 41 C31 41.33 31 41.66 31 42 C24.67410373 43.13955862 18.47721662 43.1142637 12.0625 43.0625 C10.46438477 43.05573242 10.46438477 43.05573242 8.83398438 43.04882812 C6.22259709 43.03711787 3.61132876 43.02071724 1 43 C1.24339111 44.12305542 1.24339111 44.12305542 1.49169922 45.26879883 C2.14381896 48.7727679 2.13197782 52.12532078 2.125 55.6875 C2.13080078 56.70166992 2.13080078 56.70166992 2.13671875 57.73632812 C2.12674825 62.7465035 2.12674825 62.7465035 1 65 C0.01 65 -0.98 65 -2 65 C-1.34 63.35 -0.68 61.7 0 60 C-0.66 60 -1.32 60 -2 60 C-2 54.72 -2 49.44 -2 44 C-4.24296875 44.03480469 -4.24296875 44.03480469 -6.53125 44.0703125 C-8.52082831 44.08908211 -10.51041206 44.10728102 -12.5 44.125 C-13.97339844 44.15013672 -13.97339844 44.15013672 -15.4765625 44.17578125 C-21.35918665 44.21499874 -26.36364503 43.70432638 -32 42 C-32.66 43.98 -33.32 45.96 -34 48 C-34.99 47.67 -35.98 47.34 -37 47 C-36.9690625 45.824375 -36.9690625 45.824375 -36.9375 44.625 C-36.81315937 42.01885039 -36.81315937 42.01885039 -38 40 C-40.52733235 39.34444881 -40.52733235 39.34444881 -43 39 C-41.515 38.505 -41.515 38.505 -40 38 C-40 37.01 -40 36.02 -40 35 C-40.66 34.34 -41.32 33.68 -42 33 C-40.9275 33.020625 -39.855 33.04125 -38.75 33.0625 C-35.85209576 33.0142016 -33.71387859 32.86844115 -31 32 C-30.62383545 32.65194336 -30.2476709 33.30388672 -29.86010742 33.97558594 C-28.14997838 36.25040775 -28.14997838 36.25040775 -25.36450195 36.45410156 C-24.33284912 36.4331543 -23.30119629 36.41220703 -22.23828125 36.390625 C-21.23063721 36.38063477 -20.22299316 36.37064453 -19.18481445 36.36035156 C-17.2680188 36.30572754 -17.2680188 36.30572754 -15.3125 36.25 C-11.249375 36.1675 -7.18625 36.085 -3 36 C-2.67 27.09 -2.34 18.18 -2 9 C-1.67 9 -1.34 9 -1 9 C-0.505 18.405 -0.505 18.405 0 28 C0.03867188 25.90398438 0.03867188 25.90398438 0.078125 23.765625 C0.13440784 21.92705217 0.19175514 20.08851172 0.25 18.25 C0.26417969 17.32960938 0.27835938 16.40921875 0.29296875 15.4609375 C0.54187913 8.59101089 0.54187913 8.59101089 3.046875 5.359375 C3.69140625 4.91078125 4.3359375 4.4621875 5 4 C2.525 2.02 2.525 2.02 0 0 Z " fill="#0CEFFE" transform="translate(120,9)"/>
<path d="M0 0 C0 3.3 0 6.6 0 10 C2.64 10.33 5.28 10.66 8 11 C7.34 12.32 6.68 13.64 6 15 C6.66 15.53625 7.32 16.0725 8 16.625 C10 19 10 19 10.25 22.25 C10.1675 23.1575 10.085 24.065 10 25 C9.34 25 8.68 25 8 25 C8 24.34 8 23.68 8 23 C6.35 23 4.7 23 3 23 C3 23.66 3 24.32 3 25 C1.02 25.33 -0.96 25.66 -3 26 C-3 28.97 -3 31.94 -3 35 C-4.65 34.67 -6.3 34.34 -8 34 C-8 33.34 -8 32.68 -8 32 C-8.60585938 31.9484375 -9.21171875 31.896875 -9.8359375 31.84375 C-17.42010523 30.81697037 -22.77456485 27.6145633 -28 22 C-28 21.01 -28 20.02 -28 19 C-25.91271178 17.13319997 -23.8673127 15.47058144 -21.625 13.8125 C-21.02171875 13.34908203 -20.4184375 12.88566406 -19.796875 12.40820312 C-15.27937454 9 -15.27937454 9 -13 9 C-13 8.34 -13 7.68 -13 7 C-10.91796875 5.2734375 -10.91796875 5.2734375 -8.1875 3.375 C-7.29417969 2.74335938 -6.40085937 2.11171875 -5.48046875 1.4609375 C-3 0 -3 0 0 0 Z " fill="#0DF2FE" transform="translate(71,133)"/>
<path d="M0 0 C2.0625 0.4375 2.0625 0.4375 4 1 C4 1.66 4 2.32 4 3 C5.0209375 3.37125 5.0209375 3.37125 6.0625 3.75 C9.56865083 5.24197908 12.71620368 7.06835511 16 9 C16 9.66 16 10.32 16 11 C15.34 11 14.68 11 14 11 C14 11.66 14 12.32 14 13 C13.34 13 12.68 13 12 13 C14.23402292 17.46804583 16.85276061 19.32733462 21 22 C21 22.66 21 23.32 21 24 C12.06936312 24.58243284 4.4831631 21.71764631 -3 17 C-3 16.34 -3 15.68 -3 15 C-3.5775 14.979375 -4.155 14.95875 -4.75 14.9375 C-8.38390121 13.4233745 -9.24850416 10.44043825 -11 7 C-10.01 6.34 -9.02 5.68 -8 5 C-6.68 6.32 -5.36 7.64 -4 9 C-3.34 8.01 -2.68 7.02 -2 6 C-1.34 6 -0.68 6 0 6 C-0.2784375 4.7934375 -0.2784375 4.7934375 -0.5625 3.5625 C-0.706875 2.716875 -0.85125 1.87125 -1 1 C-0.67 0.67 -0.34 0.34 0 0 Z " fill="#0DEBFE" transform="translate(26,139)"/>
<path d="M0 0 C0.66 0.33 1.32 0.66 2 1 C-0.41340328 5.22345574 -3.03855024 9.11700823 -6.5625 12.5 C-8.18444817 14.07472554 -8.18444817 14.07472554 -9.5625 16.6875 C-10.036875 17.450625 -10.51125 18.21375 -11 19 C-11.66 19 -12.32 19 -13 19 C-13 19.66 -13 20.32 -13 21 C-14.5 22.625 -14.5 22.625 -16 24 C-14.02 24 -12.04 24 -10 24 C-9 26 -9 26 -9.52905273 27.78759766 C-9.82755127 28.48933105 -10.1260498 29.19106445 -10.43359375 29.9140625 C-10.75263672 30.67460938 -11.07167969 31.43515625 -11.40039062 32.21875 C-11.74263672 33.0128125 -12.08488281 33.806875 -12.4375 34.625 C-12.77587891 35.42679688 -13.11425781 36.22859375 -13.46289062 37.0546875 C-14.30166778 39.03939964 -15.14995245 41.02008875 -16 43 C-18.97 43 -21.94 43 -25 43 C-25 36.43154059 -23.15494394 31.64750809 -20.25 25.875 C-19.91484375 25.20662109 -19.5796875 24.53824219 -19.234375 23.84960938 C-16.84905997 19.26420264 -14.19283143 15.07033145 -11 11 C-10.34 11 -9.68 11 -9 11 C-9 10.34 -9 9.68 -9 9 C-8.34 9 -7.68 9 -7 9 C-6.773125 8.443125 -6.54625 7.88625 -6.3125 7.3125 C-4.64103234 4.36753316 -2.44723648 2.31843456 0 0 Z " fill="#55EBFE" transform="translate(71,23)"/>
<path d="M0 0 C1.98 0 3.96 0 6 0 C6.33 1.65 6.66 3.3 7 5 C8.32 5.33 9.64 5.66 11 6 C10.67 4.35 10.34 2.7 10 1 C12.97 1.99 15.94 2.98 19 4 C19 4.99 19 5.98 19 7 C19.33 7.99 19.66 8.98 20 10 C20.66 10 21.32 10 22 10 C23.54296875 11.86328125 23.54296875 11.86328125 25.1875 14.3125 C25.73792969 15.11300781 26.28835937 15.91351563 26.85546875 16.73828125 C27.23316406 17.48464844 27.61085937 18.23101562 28 19 C27.67 19.99 27.34 20.98 27 22 C26.67 21.67 26.34 21.34 26 21 C26 21.99 26 22.98 26 24 C24.68 23.67 23.36 23.34 22 23 C22 22.01 22 21.02 22 20 C20.6696875 19.690625 20.6696875 19.690625 19.3125 19.375 C15.03460421 17.59926967 13.65599807 15.74964433 11 12 C11 11.34 11 10.68 11 10 C8.525 9.01 8.525 9.01 6 8 C6 7.34 6 6.68 6 6 C5.21625 5.690625 4.4325 5.38125 3.625 5.0625 C1 4 1 4 -1 3 C-1 11.91 -1 20.82 -1 30 C2.279375 29.7834375 2.279375 29.7834375 5.625 29.5625 C7.46964844 29.44068359 7.46964844 29.44068359 9.3515625 29.31640625 C12.61532388 29.03336056 15.77943859 28.58961047 19 28 C18.67 29.32 18.34 30.64 18 32 C11.4 31.67 4.8 31.34 -2 31 C-2 21.43 -2 11.86 -2 2 C-1.34 2 -0.68 2 0 2 C0 1.34 0 0.68 0 0 Z " fill="#48EBFE" transform="translate(125,15)"/>
<path d="M0 0 C3 1 3 1 5 4 C7.51385259 4.50960691 7.51385259 4.50960691 10.4453125 4.51171875 C12.05986328 4.56489258 12.05986328 4.56489258 13.70703125 4.61914062 C14.83496094 4.64169922 15.96289062 4.66425781 17.125 4.6875 C18.82849609 4.73874023 18.82849609 4.73874023 20.56640625 4.79101562 C23.37750579 4.87369502 26.18828553 4.94277937 29 5 C29 5.33 29 5.66 29 6 C27.865625 6.309375 26.73125 6.61875 25.5625 6.9375 C22.21224901 7.62924531 22.21224901 7.62924531 21 9 C23.97 9.33 26.94 9.66 30 10 C30 10.66 30 11.32 30 12 C26.66674246 12.05874776 23.33362062 12.09384467 20 12.125 C19.06542969 12.14175781 18.13085938 12.15851562 17.16796875 12.17578125 C11.40790037 12.21606145 6.5225718 11.65416655 1 10 C0.34 11.98 -0.32 13.96 -1 16 C-1.99 15.67 -2.98 15.34 -4 15 C-3.9690625 13.824375 -3.9690625 13.824375 -3.9375 12.625 C-3.81315937 10.01885039 -3.81315937 10.01885039 -5 8 C-7.52733235 7.34444881 -7.52733235 7.34444881 -10 7 C-9.01 6.67 -8.02 6.34 -7 6 C-7 5.01 -7 4.02 -7 3 C-7.66 2.34 -8.32 1.68 -9 1 C-7.88625 1.020625 -6.7725 1.04125 -5.625 1.0625 C-2.16784079 1.26380718 -2.16784079 1.26380718 0 0 Z " fill="#0FEBFE" transform="translate(87,41)"/>
<path d="M0 0 C9.57 0 19.14 0 29 0 C25.19840121 1.90079939 24.01795859 2.24412145 20.015625 2.1953125 C19.17290039 2.19031738 18.33017578 2.18532227 17.46191406 2.18017578 C15.8720166 2.15286377 15.8720166 2.15286377 14.25 2.125 C10.8675 2.08375 7.485 2.0425 4 2 C4 9.59 4 17.18 4 25 C14.23 25 24.46 25 35 25 C35.33 23.68 35.66 22.36 36 21 C36 22.65 36 24.3 36 26 C35.01604248 26.02505615 34.03208496 26.0501123 33.01831055 26.07592773 C29.36729943 26.1701082 25.71647384 26.2703029 22.06567383 26.37231445 C20.48563985 26.41562305 18.90556031 26.45730106 17.32543945 26.49731445 C15.05405952 26.55511583 12.78290811 26.6187816 10.51171875 26.68359375 C9.80536789 26.70030624 9.09901703 26.71701874 8.3712616 26.73423767 C5.3335176 26.8259747 2.90376942 27.03207686 0 28 C-2.06498892 28.08315752 -4.1325789 28.10735878 -6.19921875 28.09765625 C-7.40771484 28.09443359 -8.61621094 28.09121094 -9.86132812 28.08789062 C-11.12396484 28.07951172 -12.38660156 28.07113281 -13.6875 28.0625 C-15.59885742 28.05573242 -15.59885742 28.05573242 -17.54882812 28.04882812 C-20.69926564 28.03702873 -23.84960949 28.02056597 -27 28 C-27 27.67 -27 27.34 -27 27 C-29.97 26.67 -32.94 26.34 -36 26 C-36 23.69 -36 21.38 -36 19 C-35.67 19 -35.34 19 -35 19 C-35 20.98 -35 22.96 -35 25 C-24.77 25 -14.54 25 -4 25 C-4 17.41 -4 9.82 -4 2 C-3.34 2 -2.68 2 -2 2 C-2 7.28 -2 12.56 -2 18 C-1.34 18 -0.68 18 0 18 C-0.66 19.65 -1.32 21.3 -2 23 C-1.01 23 -0.02 23 1 23 C1.02714434 20.2915983 1.04690846 17.58347279 1.0625 14.875 C1.07506836 13.73417969 1.07506836 13.73417969 1.08789062 12.5703125 C1.09111328 11.82265625 1.09433594 11.075 1.09765625 10.3046875 C1.10289307 9.62390137 1.10812988 8.94311523 1.11352539 8.24169922 C0.97331406 5.4730531 0.45574591 2.73447549 0 0 Z " fill="#96F2FE" transform="translate(120,51)"/>
<path d="M0 0 C1.65 0 3.3 0 5 0 C4.67 1.32 4.34 2.64 4 4 C5.32 4.33 6.64 4.66 8 5 C7.67 3.35 7.34 1.7 7 0 C7.66 0.33 8.32 0.66 9 1 C9 1.66 9 2.32 9 3 C9.99 3.33 10.98 3.66 12 4 C12 5.32 12 6.64 12 8 C13.65 8 15.3 8 17 8 C16.67 9.32 16.34 10.64 16 12 C17.98 11.67 19.96 11.34 22 11 C22 9.35 22 7.7 22 6 C22.66 6 23.32 6 24 6 C24 6.66 24 7.32 24 8 C24.99 8 25.98 8 27 8 C26.67 7.01 26.34 6.02 26 5 C27.32 4.67 28.64 4.34 30 4 C30 4.99 30 5.98 30 7 C30.99 7.33 31.98 7.66 33 8 C32.34 8 31.68 8 31 8 C30.67 8.66 30.34 9.32 30 10 C27.525 9.505 27.525 9.505 25 9 C24.67 10.65 24.34 12.3 24 14 C21.36 14.33 18.72 14.66 16 15 C16.33 18.3 16.66 21.6 17 25 C15.02 25 13.04 25 11 25 C10.67 23.68 10.34 22.36 10 21 C9.34 21 8.68 21 8 21 C8 19.35 8 17.7 8 16 C7.34 15.67 6.68 15.34 6 15 C8.31 15 10.62 15 13 15 C11.02 14.34 9.04 13.68 7 13 C7 12.34 7 11.68 7 11 C6.01 11.33 5.02 11.66 4 12 C1.66700175 12.03954234 -0.66708189 12.04401732 -3 12 C-1 11 1 10 3 9 C2.30058404 5.85262818 1.23921302 2.97411124 0 0 Z " fill="#48EBFE" transform="translate(143,34)"/>
<path d="M0 0 C1.65 0 3.3 0 5 0 C5 2.31 5 4.62 5 7 C5.66 7.33 6.32 7.66 7 8 C7 6.35 7 4.7 7 3 C7.99 2.67 8.98 2.34 10 2 C9.13329546 8.35583327 8.06965872 14.67551301 7 21 C6.34 21 5.68 21 5 21 C5 23.64 5 26.28 5 29 C6.32 29 7.64 29 9 29 C8.67 30.32 8.34 31.64 8 33 C4.30872755 31.37847675 1.0512212 29.65717169 -2 27 C-4.70613032 19.37613032 -0.45094774 8.35284322 2 1 C1.34 0.67 0.68 0.34 0 0 Z " fill="#5DE1FD" transform="translate(79,49)"/>
<path d="M0 0 C0.66 0.33 1.32 0.66 2 1 C2.66 1 3.32 1 4 1 C6.00212229 1.32033957 8.00239695 1.65259077 10 2 C9.62488281 2.4846875 9.24976562 2.969375 8.86328125 3.46875 C2.26061637 11.0544379 2.26061637 11.0544379 -1 20 C0.65 20.33 2.3 20.66 4 21 C4 21.33 4 21.66 4 22 C0.04 22.495 0.04 22.495 -4 23 C-4.66 21.68 -5.32 20.36 -6 19 C-8.31 19.33 -10.62 19.66 -13 20 C-8.82927682 13.22257483 -4.4368481 6.60572918 0 0 Z " fill="#5FE4FD" transform="translate(95,23)"/>
<path d="M0 0 C0.66 1.32 1.32 2.64 2 4 C5.93075644 3.42547254 5.93075644 3.42547254 9 1 C9.33868777 3.20751848 9.67071689 5.41605911 10 7.625 C10.185625 8.85476562 10.37125 10.08453125 10.5625 11.3515625 C10.706875 12.55554688 10.85125 13.75953125 11 15 C11.144375 16.0621875 11.28875 17.124375 11.4375 18.21875 C11 21 11 21 8.375 23.1171875 C7.26125 23.69726562 6.1475 24.27734375 5 24.875 C3.88625 25.47054687 2.7725 26.06609375 1.625 26.6796875 C0.75875 27.11539063 -0.1075 27.55109375 -1 28 C-1.33 26.35 -1.66 24.7 -2 23 C-0.02 22.67 1.96 22.34 4 22 C3.79503906 21.24976562 3.59007812 20.49953125 3.37890625 19.7265625 C1.64572339 13.14212617 0.43604086 6.79622301 0 0 Z " fill="#12CEFB" transform="translate(152,55)"/>
<path d="M0 0 C0.556875 0.185625 1.11375 0.37125 1.6875 0.5625 C4.40320082 1.07628124 6.3139519 0.55098422 9 0 C9.99 0.33 10.98 0.66 12 1 C12 1.66 12 2.32 12 3 C12.66 3 13.32 3 14 3 C15.3440093 4.99284138 16.67541292 6.99419671 18 9 C20.47810793 11.66873161 22.84322593 13.88851622 25.8125 16 C28 18 28 18 28.3125 20.75 C28.209375 21.4925 28.10625 22.235 28 23 C27.01 23 26.02 23 25 23 C24.7525 22.195625 24.505 21.39125 24.25 20.5625 C23.8375 19.716875 23.425 18.87125 23 18 C21.67696283 17.6278958 20.34262065 17.29369827 19 17 C17.75 14.9375 17.75 14.9375 17 13 C15.68 13 14.36 13 13 13 C13 12.01 13 11.02 13 10 C12.0925 9.9175 11.185 9.835 10.25 9.75 C6.54241549 8.89440357 5.49767239 7.75605229 3 5 C2.01 4.67 1.02 4.34 0 4 C0 2.68 0 1.36 0 0 Z " fill="#36E8FE" transform="translate(149,16)"/>
<path d="M0 0 C4.37874 0.7039313 7.34545491 3.2699828 10.75 5.9375 C11.35199219 6.39318359 11.95398438 6.84886719 12.57421875 7.31835938 C14.09145961 8.49327492 15.55116855 9.74169407 17 11 C17 11.66 17 12.32 17 13 C17.66 13.33 18.32 13.66 19 14 C16.69 13.67 14.38 13.34 12 13 C11.67 12.01 11.34 11.02 11 10 C10.01 10.33 9.02 10.66 8 11 C7.26676204 13.01508358 7.26676204 13.01508358 7 15 C6.34 15 5.68 15 5 15 C5 14.34 5 13.68 5 13 C2 11.66666667 2 11.66666667 -1 13 C-3.1875 12.5625 -3.1875 12.5625 -5 12 C-5 11.34 -5 10.68 -5 10 C-6.98 10 -8.96 10 -11 10 C-11 9.67 -11 9.34 -11 9 C-7.7 9 -4.4 9 -1 9 C-1.020625 7.700625 -1.04125 6.40125 -1.0625 5.0625 C-1.08399454 3.70834367 -1.07148199 2.35243917 -1 1 C-0.67 0.67 -0.34 0.34 0 0 Z " fill="#0FDFFB" transform="translate(175,133)"/>
<path d="M0 0 C1.32 0.33 2.64 0.66 4 1 C4 1.66 4 2.32 4 3 C3.34 3 2.68 3 2 3 C1.67 3.99 1.34 4.98 1 6 C6.445 7.485 6.445 7.485 12 9 C11.01 11.64 10.02 14.28 9 17 C7.24970238 16.68917128 5.49977306 16.37626821 3.75 16.0625 C2.77546875 15.88847656 1.8009375 15.71445312 0.796875 15.53515625 C-2 15 -2 15 -4.234375 14.30859375 C-4.81703125 14.20675781 -5.3996875 14.10492188 -6 14 C-6.66 14.66 -7.32 15.32 -8 16 C-8.33 14.68 -8.66 13.36 -9 12 C-7.02 11.67 -5.04 11.34 -3 11 C-3.33 9.02 -3.66 7.04 -4 5 C-3.34 5 -2.68 5 -2 5 C-2 4.34 -2 3.68 -2 3 C-1.34 3 -0.68 3 0 3 C0 2.01 0 1.02 0 0 Z " fill="#52E8FE" transform="translate(70,32)"/>
<path d="M0 0 C9.24 0 18.48 0 28 0 C28.33 6.6 28.66 13.2 29 20 C29.99 19.67 30.98 19.34 32 19 C31.97679688 17.95199219 31.95359375 16.90398437 31.9296875 15.82421875 C31.91092697 14.44531963 31.89272707 13.0664128 31.875 11.6875 C31.85824219 10.99720703 31.84148437 10.30691406 31.82421875 9.59570312 C31.78782206 5.82864604 31.85621136 4.21568296 34 1 C34.05789006 4.45826342 34.09355821 7.91640293 34.125 11.375 C34.14175781 12.35984375 34.15851563 13.3446875 34.17578125 14.359375 C34.18544922 15.77089844 34.18544922 15.77089844 34.1953125 17.2109375 C34.21102295 18.51490479 34.21102295 18.51490479 34.22705078 19.84521484 C34 22 34 22 32 24 C29.4375 24.1875 29.4375 24.1875 27 24 C26 23 26 23 25.88647461 20.86694336 C25.89171143 19.95050049 25.89694824 19.03405762 25.90234375 18.08984375 C25.90556641 17.10048828 25.90878906 16.11113281 25.91210938 15.09179688 C25.92048828 14.05087891 25.92886719 13.00996094 25.9375 11.9375 C25.94201172 10.89271484 25.94652344 9.84792969 25.95117188 8.77148438 C25.96300087 6.1809334 25.97948311 3.59049441 26 1 C24.91295776 1.24447876 24.91295776 1.24447876 23.80395508 1.49389648 C21.16674415 1.9699033 18.81006659 2.11490366 16.13671875 2.09765625 C14.80737305 2.09282227 14.80737305 2.09282227 13.45117188 2.08789062 C12.53916016 2.07951172 11.62714844 2.07113281 10.6875 2.0625 C9.75615234 2.05798828 8.82480469 2.05347656 7.86523438 2.04882812 C5.57675627 2.03709234 3.28841192 2.02067363 1 2 C0.67 1.34 0.34 0.68 0 0 Z " fill="#99EBFE" transform="translate(90,83)"/>
<path d="M0 0 C1.98 0.99 3.96 1.98 6 3 C3.45969334 5.73571487 0.8529949 7.78781162 -2.26123047 9.82714844 C-4.14783635 11.09972 -5.97256569 12.43657579 -7.796875 13.796875 C-8.44527344 14.28027344 -9.09367187 14.76367188 -9.76171875 15.26171875 C-11.10475195 16.26701472 -12.44585373 17.27489542 -13.78515625 18.28515625 C-18.78167116 22 -18.78167116 22 -21 22 C-21.226875 22.598125 -21.45375 23.19625 -21.6875 23.8125 C-23.33811133 26.56351888 -25.1972081 27.52484637 -28 29 C-27.67 27.68 -27.34 26.36 -27 25 C-26.34 25 -25.68 25 -25 25 C-24.67 23.02 -24.34 21.04 -24 19 C-21.69 19 -19.38 19 -17 19 C-17 17.35 -17 15.7 -17 14 C-15.35 14 -13.7 14 -12 14 C-12 12.68 -12 11.36 -12 10 C-11.01 10 -10.02 10 -9 10 C-9 9.34 -9 8.68 -9 8 C-7.35 8 -5.7 8 -4 8 C-3.67 6.35 -3.34 4.7 -3 3 C-2.34 3 -1.68 3 -1 3 C-0.67 2.01 -0.34 1.02 0 0 Z " fill="#5ADAFE" transform="translate(170,87)"/>
<path d="M0 0 C11.22 0 22.44 0 34 0 C34 0.33 34 0.66 34 1 C32.02 1.33 30.04 1.66 28 2 C28 3.32 28 4.64 28 6 C25.08327116 6.02700675 22.16679323 6.04684237 19.25 6.0625 C18.425 6.07087891 17.6 6.07925781 16.75 6.08789062 C15.55117187 6.09272461 15.55117187 6.09272461 14.328125 6.09765625 C13.22839355 6.10551147 13.22839355 6.10551147 12.10644531 6.11352539 C9.94396296 5.99697992 8.07961631 5.58831965 6 5 C5.2575 4.814375 4.515 4.62875 3.75 4.4375 C3.1725 4.293125 2.595 4.14875 2 4 C2 3.34 2 2.68 2 2 C1.34 1.34 0.68 0.68 0 0 Z " fill="#08CBFA" transform="translate(123,77)"/>
<path d="M0 0 C0.66 0.33 1.32 0.66 2 1 C2.625 3.5625 2.625 3.5625 3 6 C2.01 6.495 2.01 6.495 1 7 C0.01 6.67 -0.98 6.34 -2 6 C-2 6.99 -2 7.98 -2 9 C-2.66 9 -3.32 9 -4 9 C-4 9.66 -4 10.32 -4 11 C-4.66 11 -5.32 11 -6 11 C-5.67 12.98 -5.34 14.96 -5 17 C-6.98 17.33 -8.96 17.66 -11 18 C-10.67 19.32 -10.34 20.64 -10 22 C-12.31 21.67 -14.62 21.34 -17 21 C-16.505 19.515 -16.505 19.515 -16 18 C-15.34 18 -14.68 18 -14 18 C-14 17.34 -14 16.68 -14 16 C-13 15 -12 14 -11 13 C-10.54625 12.21625 -10.0925 11.4325 -9.625 10.625 C-7.75829076 7.60954661 -5.56567751 5.43739364 -3 3 C-2.401875 2.401875 -1.80375 1.80375 -1.1875 1.1875 C-0.795625 0.795625 -0.40375 0.40375 0 0 Z " fill="#09EDFE" transform="translate(72,26)"/>
<path d="M0 0 C0.02465746 4.1117256 0.04283959 8.22342278 0.05493164 12.33520508 C0.0599708 13.73495228 0.06680216 15.1346942 0.07543945 16.53442383 C0.0875232 18.54245777 0.09269807 20.55052957 0.09765625 22.55859375 C0.10551147 24.37315063 0.10551147 24.37315063 0.11352539 26.22436523 C0 29 0 29 -1 30 C-3.86267567 30.07325168 -6.700719 30.09238205 -9.5625 30.0625 C-10.36880859 30.05798828 -11.17511719 30.05347656 -12.00585938 30.04882812 C-14.00393756 30.03700518 -16.00197783 30.01906914 -18 30 C-17.67 29.34 -17.34 28.68 -17 28 C-12.05 28.33 -7.1 28.66 -2 29 C-2 20.09 -2 11.18 -2 2 C-4.31 3.65 -6.62 5.3 -9 7 C-9.66 6.67 -10.32 6.34 -11 6 C-11 3 -11 3 -8.875 0.75 C-5.31629721 -1.41616692 -3.94890778 -0.85322661 0 0 Z " fill="#A6EFFD" transform="translate(118,16)"/>
<path d="M0 0 C0.66 0.33 1.32 0.66 2 1 C-0.41340328 5.22345574 -3.03855024 9.11700823 -6.5625 12.5 C-8.18444817 14.07472554 -8.18444817 14.07472554 -9.5625 16.6875 C-10.036875 17.450625 -10.51125 18.21375 -11 19 C-11.66 19 -12.32 19 -13 19 C-13 19.66 -13 20.32 -13 21 C-13.66 21.33 -14.32 21.66 -15 22 C-15.268125 22.928125 -15.53625 23.85625 -15.8125 24.8125 C-17.19720178 28.5293311 -18.77575097 29.79393487 -22 32 C-21.41221144 27.68690287 -19.85255664 24.65479388 -17.625 20.9375 C-17.01914062 19.91527344 -16.41328125 18.89304687 -15.7890625 17.83984375 C-12.80343533 13.10064954 -12.80343533 13.10064954 -11 11 C-10.34 11 -9.68 11 -9 11 C-9 10.34 -9 9.68 -9 9 C-8.34 9 -7.68 9 -7 9 C-6.773125 8.443125 -6.54625 7.88625 -6.3125 7.3125 C-4.64103234 4.36753316 -2.44723648 2.31843456 0 0 Z " fill="#3CDCFD" transform="translate(71,23)"/>
<path d="M0 0 C10.89 0 21.78 0 33 0 C33 0.99 33 1.98 33 3 C24.85021363 5.66115473 14.28648951 6.61568482 6 4 C6 3.34 6 2.68 6 2 C3.03 1.505 3.03 1.505 0 1 C0 0.67 0 0.34 0 0 Z " fill="#07CDF9" transform="translate(84,77)"/>
<path d="M0 0 C-4.85883199 1.3440331 -9.79089666 1.34321033 -14.80078125 1.51757812 C-18.69888206 1.69848823 -21.6290928 2.00003592 -25 4 C-26.66619446 4.0396713 -28.33391013 4.04384447 -30 4 C-30.99 4.495 -30.99 4.495 -32 5 C-32.66 4.34 -33.32 3.68 -34 3 C-23.69576693 -2.24116546 -10.78533982 -5.99458523 0 0 Z " fill="#75E0FD" transform="translate(205,71)"/>
<path d="M0 0 C1.32 0.33 2.64 0.66 4 1 C-3.28385539 7.6639528 -9.93008738 12.45073204 -20 13 C-19 10 -19 10 -16.4375 8.0625 C-15.633125 7.381875 -14.82875 6.70125 -14 6 C-14 4.68 -14 3.36 -14 2 C-13.34 2 -12.68 2 -12 2 C-11.67 2.66 -11.34 3.32 -11 4 C-9.68 4 -8.36 4 -7 4 C-5 4 -3 4 -1 4 C-0.67 2.68 -0.34 1.36 0 0 Z " fill="#91DBF9" transform="translate(219,149)"/>
<path d="M0 0 C0 0.66 0 1.32 0 2 C0.7425 2.2475 1.485 2.495 2.25 2.75 C5.20124062 4.09147301 6.84814974 5.60905526 9 8 C7.68 8.33 6.36 8.66 5 9 C4.34 7.68 3.68 6.36 3 5 C2.2575 5.33 1.515 5.66 0.75 6 C-2 7 -2 7 -6 7 C-6 7.66 -6 8.32 -6 9 C-6.66 9 -7.32 9 -8 9 C-8 11.31 -8 13.62 -8 16 C-10.62187494 14.95125002 -11.79371361 14.35068687 -13.25 11.875 C-13.4975 11.25625 -13.745 10.6375 -14 10 C-13.34 10 -12.68 10 -12 10 C-12 9.34 -12 8.68 -12 8 C-11.195625 7.731875 -10.39125 7.46375 -9.5625 7.1875 C-8.716875 6.795625 -7.87125 6.40375 -7 6 C-6.67 5.01 -6.34 4.02 -6 3 C-2.55555556 0 -2.55555556 0 0 0 Z " fill="#64D9FA" transform="translate(137,125)"/>
<path d="M0 0 C0.99 0.66 1.98 1.32 3 2 C0.9163691 1.85848172 -1.16689938 1.71162064 -3.25 1.5625 C-4.41015625 1.48128906 -5.5703125 1.40007813 -6.765625 1.31640625 C-10 1 -10 1 -11.92675781 0.49560547 C-14.13317438 -0.03183514 -16.14052826 -0.17376794 -18.40625 -0.24609375 C-19.23253906 -0.27896484 -20.05882813 -0.31183594 -20.91015625 -0.34570312 C-22.63658488 -0.4068963 -24.36315617 -0.46418884 -26.08984375 -0.51757812 C-26.91613281 -0.55173828 -27.74242188 -0.58589844 -28.59375 -0.62109375 C-29.34333984 -0.6461499 -30.09292969 -0.67120605 -30.86523438 -0.69702148 C-33.24527678 -1.03481113 -34.91908962 -1.82197613 -37 -3 C-25.11230158 -6.60144558 -11.58852987 -3.34942741 0 0 Z " fill="#66D5FA" transform="translate(145,10)"/>
<path d="M0 0 C0 3.3 0 6.6 0 10 C-0.33 10 -0.66 10 -1 10 C-1 8.02 -1 6.04 -1 4 C-2.65 4 -4.3 4 -6 4 C-6.226875 4.721875 -6.45375 5.44375 -6.6875 6.1875 C-8.36087321 9.77329973 -9.84682991 11.56943139 -13 14 C-16.29890563 14.98007304 -19.59053697 15.55643879 -23 16 C-17.35475578 10.19794344 -17.35475578 10.19794344 -14 8 C-13.34 8 -12.68 8 -12 8 C-12 7.34 -12 6.68 -12 6 C-10.13671875 4.4921875 -10.13671875 4.4921875 -7.6875 2.875 C-6.88699219 2.33617187 -6.08648437 1.79734375 -5.26171875 1.2421875 C-3 0 -3 0 0 0 Z " fill="#50E8FE" transform="translate(70,134)"/>
<path d="M0 0 C0.99 0.33 1.98 0.66 3 1 C3.66 0.67 4.32 0.34 5 0 C5.45890625 0.54269531 5.9178125 1.08539062 6.390625 1.64453125 C7.31101563 2.71767578 7.31101563 2.71767578 8.25 3.8125 C8.85328125 4.52019531 9.4565625 5.22789063 10.078125 5.95703125 C11.93229128 8.05889994 11.93229128 8.05889994 14.21875 9.59375 C14.8065625 10.0578125 15.394375 10.521875 16 11 C16.25 13.6875 16.25 13.6875 16 16 C15.01 16 14.02 16 13 16 C12.7525 15.195625 12.505 14.39125 12.25 13.5625 C11.8375 12.716875 11.425 11.87125 11 11 C9.67696283 10.6278958 8.34262065 10.29369827 7 10 C5.75 7.9375 5.75 7.9375 5 6 C3.68 6 2.36 6 1 6 C0.67 4.02 0.34 2.04 0 0 Z " fill="#09F2FE" transform="translate(161,23)"/>
<path d="M0 0 C1.65 0 3.3 0 5 0 C4.67 1.32 4.34 2.64 4 4 C5.32 4.33 6.64 4.66 8 5 C7.67 3.35 7.34 1.7 7 0 C7.66 0.33 8.32 0.66 9 1 C9 1.66 9 2.32 9 3 C9.99 3.33 10.98 3.66 12 4 C11.9375 6.3125 11.9375 6.3125 11 9 C6.18494137 11.79273401 2.62406111 12.34433027 -3 12 C-1 11 1 10 3 9 C2.30058404 5.85262818 1.23921302 2.97411124 0 0 Z " fill="#18D4FC" transform="translate(143,34)"/>
<path d="M0 0 C0.47050781 0.40992188 0.94101562 0.81984375 1.42578125 1.2421875 C2.35970703 2.05042969 2.35970703 2.05042969 3.3125 2.875 C4.23482422 3.67550781 4.23482422 3.67550781 5.17578125 4.4921875 C7.13498212 6.1640447 7.13498212 6.1640447 10 8 C10 8.66 10 9.32 10 10 C2.11559036 10.51420063 -5.47439433 8.56792397 -12 4 C-11.34 3.67 -10.68 3.34 -10 3 C-9.01 3.33 -8.02 3.66 -7 4 C-5.33382885 4.04063832 -3.66611905 4.042721 -2 4 C-1.34 4 -0.68 4 0 4 C0 2.68 0 1.36 0 0 Z " fill="#7EDCFC" transform="translate(37,153)"/>
<path d="M0 0 C2.47251438 3.00385701 3.87685277 5.84424833 5.1875 9.5 C5.53167969 10.4384375 5.87585938 11.376875 6.23046875 12.34375 C7 15 7 15 7 19 C4.03 19 1.06 19 -2 19 C-2 17.68 -2 16.36 -2 15 C-0.68 15 0.64 15 2 15 C2 12.36 2 9.72 2 7 C1.34 7 0.68 7 0 7 C-1.125 2.25 -1.125 2.25 0 0 Z " fill="#61D9F9" transform="translate(187,47)"/>
<path d="M0 0 C3.92263209 3.56239037 6.13357282 6.77949567 8.25 11.625 C8.75015625 12.75164062 9.2503125 13.87828125 9.765625 15.0390625 C11.68613878 19.64586453 12.09410672 23.0123437 12 28 C9.00261343 24.61585388 7.73557554 22.41345324 7 18 C6.2575 16.2675 6.2575 16.2675 5.5 14.5 C4.24735254 11.57715592 3.47261817 9.11927995 3 6 C2.01 6.33 1.02 6.66 0 7 C-1.04449911 3.86650268 -0.93423645 3.01031744 0 0 Z " fill="#7EE5FC" transform="translate(224,83)"/>
<path d="M0 0 C3.34252724 -0.07427838 5.8035914 -0.06546953 9 1 C9 1.66 9 2.32 9 3 C9.99 3 10.98 3 12 3 C12.33 3.66 12.66 4.32 13 5 C13.99 5.33 14.98 5.66 16 6 C17.38671875 8.06640625 17.38671875 8.06640625 18.6875 10.5625 C19.12449219 11.38878906 19.56148437 12.21507813 20.01171875 13.06640625 C20.50091797 14.02353516 20.50091797 14.02353516 21 15 C16.95649741 13.20626577 13.51019314 10.63350347 9.9375 8.0625 C9.31294922 7.61970703 8.68839844 7.17691406 8.04492188 6.72070312 C7.44099609 6.28822266 6.83707031 5.85574219 6.21484375 5.41015625 C5.66948975 5.01965088 5.12413574 4.62914551 4.56225586 4.22680664 C2.90705753 2.92701423 1.45848392 1.51494843 0 0 Z " fill="#6BE1FD" transform="translate(69,94)"/>
<path d="M0 0 C1.65 0 3.3 0 5 0 C5 2.31 5 4.62 5 7 C5.66 7.33 6.32 7.66 7 8 C7 6.35 7 4.7 7 3 C7.99 2.67 8.98 2.34 10 2 C9.13329546 8.35583327 8.06965872 14.67551301 7 21 C6.67 21 6.34 21 6 21 C6.33 17.7 6.66 14.4 7 11 C3.41672247 9.99782936 3.41672247 9.99782936 0 11 C0.45822468 7.53058454 0.89131683 4.32604951 2 1 C1.34 0.67 0.68 0.34 0 0 Z " fill="#83E5FD" transform="translate(79,49)"/>
<path d="M0 0 C2.0625 0.4375 2.0625 0.4375 4 1 C3.01 1.33 2.02 1.66 1 2 C0.67 5.96 0.34 9.92 0 14 C-3.70901137 13.07274716 -5.64275883 12.1390713 -8.75 10.0625 C-9.54921875 9.53785156 -10.3484375 9.01320312 -11.171875 8.47265625 C-11.77515625 7.98667969 -12.3784375 7.50070313 -13 7 C-13 6.34 -13 5.68 -13 5 C-13.99 4.67 -14.98 4.34 -16 4 C-13.48910624 3.10325223 -12.35464891 2.86827326 -9.8125 3.8125 C-8 5 -8 5 -7 7 C-4.47266765 7.65555119 -4.47266765 7.65555119 -2 8 C-1.855625 6.865625 -1.71125 5.73125 -1.5625 4.5625 C-1 1 -1 1 0 0 Z " fill="#9AE5FD" transform="translate(71,160)"/>
<path d="M0 0 C0.66 0.33 1.32 0.66 2 1 C2 1.66 2 2.32 2 3 C1.34 3.66 0.68 4.32 0 5 C-0.53625 5.61875 -1.0725 6.2375 -1.625 6.875 C-3.78700675 8.80942709 -5.35611687 9.73674363 -7.9375 10.9375 C-11.71598949 12.70406652 -14.08599513 15.00505055 -17 18 C-19.3125 18.8125 -19.3125 18.8125 -21 19 C-19.625 17 -19.625 17 -18 15 C-17.34 15 -16.68 15 -16 15 C-16 14.34 -16 13.68 -16 13 C-14.35 12.34 -12.7 11.68 -11 11 C-11 10.34 -11 9.68 -11 9 C-9.1015625 7.2734375 -9.1015625 7.2734375 -6.625 5.375 C-5.81289062 4.74335937 -5.00078125 4.11171875 -4.1640625 3.4609375 C-2 2 -2 2 0 2 C0 1.34 0 0.68 0 0 Z " fill="#94DBFB" transform="translate(143,92)"/>
<path d="M0 0 C0 2 0 2 -1.1875 3.5 C-3 5 -3 5 -5.5 5.875 C-8.70018832 7.31508475 -9.25585475 9.02041853 -11 12 C-15.24137931 15 -15.24137931 15 -18 15 C-17.78113065 11.25932375 -17.17001242 10.15523962 -14.34765625 7.578125 C-13.26277887 6.78792199 -12.16725498 6.01216545 -11.0625 5.25 C-10.51142578 4.85167969 -9.96035156 4.45335938 -9.39257812 4.04296875 C-3.75297934 0 -3.75297934 0 0 0 Z " fill="#49D9FC" transform="translate(32,72)"/>
<path d="M0 0 C0.66 1.32 1.32 2.64 2 4 C5.93075644 3.42547254 5.93075644 3.42547254 9 1 C9.66 5.62 10.32 10.24 11 15 C10.34 14.34 9.68 13.68 9 13 C9 11.68 9 10.36 9 9 C8.01 8.67 7.02 8.34 6 8 C5.67 8.66 5.34 9.32 5 10 C4.34 10 3.68 10 3 10 C3 11.98 3 13.96 3 16 C2.67 16 2.34 16 2 16 C1.34 10.72 0.68 5.44 0 0 Z " fill="#6FEEFE" transform="translate(152,55)"/>
<path d="M0 0 C0.33 0.99 0.66 1.98 1 3 C1.99 3.33 2.98 3.66 4 4 C3.34 4 2.68 4 2 4 C1.67 4.66 1.34 5.32 1 6 C-1.475 5.505 -1.475 5.505 -4 5 C-4.33 6.32 -4.66 7.64 -5 9 C-8.50164762 9.89577032 -10.38129749 10.26716699 -13.75 8.8125 C-16.02736589 6.97795525 -16.97431136 5.70408823 -18 3 C-15.03 3.495 -15.03 3.495 -12 4 C-12.33 5.32 -12.66 6.64 -13 8 C-11.02 7.67 -9.04 7.34 -7 7 C-7 5.35 -7 3.7 -7 2 C-6.34 2 -5.68 2 -5 2 C-5 2.66 -5 3.32 -5 4 C-4.01 4 -3.02 4 -2 4 C-2.33 3.01 -2.66 2.02 -3 1 C-2.01 0.67 -1.02 0.34 0 0 Z " fill="#19CCFC" transform="translate(172,38)"/>
<path d="M0 0 C0.99 0.33 1.98 0.66 3 1 C2.67 1.66 2.34 2.32 2 3 C1.34 3 0.68 3 0 3 C0 12.57 0 22.14 0 32 C-0.99 31.01 -1.98 30.02 -3 29 C-2.505 27.515 -2.505 27.515 -2 26 C-1.94085789 24.26139842 -1.93901123 22.52053182 -1.97265625 20.78125 C-1.98490234 19.76675781 -1.99714844 18.75226562 -2.00976562 17.70703125 C-2.04492299 15.56894264 -2.08398588 13.43091468 -2.12695312 11.29296875 C-2.13791016 10.27847656 -2.14886719 9.26398437 -2.16015625 8.21875 C-2.18541382 6.8255957 -2.18541382 6.8255957 -2.21118164 5.40429688 C-2 3 -2 3 0 0 Z " fill="#17EBFE" transform="translate(123,14)"/>
<path d="M0 0 C7.86590179 3.59285093 13.5691725 10.46603567 19 17 C18.67 17.66 18.34 18.32 18 19 C16.68 18.67 15.36 18.34 14 18 C14 16.68 14 15.36 14 14 C13.13375 13.62875 13.13375 13.62875 12.25 13.25 C9.67453538 11.81918632 8.04872851 10.11081119 6 8 C5.113125 7.34 4.22625 6.68 3.3125 6 C0.92316499 3.9335481 0.32919764 3.07251127 0 0 Z " fill="#7CDFFD" transform="translate(163,20)"/>
<path d="M0 0 C1.97986082 0.11347619 3.95891598 0.2410935 5.9375 0.375 C7.03964844 0.44460938 8.14179688 0.51421875 9.27734375 0.5859375 C10.62505859 0.79089844 10.62505859 0.79089844 12 1 C12.33 1.66 12.66 2.32 13 3 C12.01 3 11.02 3 10 3 C8.89163577 4.88316159 8.89163577 4.88316159 8 7 C8.33 7.66 8.66 8.32 9 9 C6.69 8.34 4.38 7.68 2 7 C1.67 7.66 1.34 8.32 1 9 C1.020625 7.88625 1.04125 6.7725 1.0625 5.625 C1.26380718 2.16784079 1.26380718 2.16784079 0 0 Z " fill="#0DE8FD" transform="translate(137,11)"/>
<path d="M0 0 C1.43655854 -0.08131463 2.8744483 -0.13933559 4.3125 -0.1875 C5.51326172 -0.23970703 5.51326172 -0.23970703 6.73828125 -0.29296875 C9 0 9 0 10.8125 1.21875 C12.40561415 3.60842122 12.13393456 4.88713777 11.6875 7.6875 C11.50767578 8.89986328 11.50767578 8.89986328 11.32421875 10.13671875 C11.21722656 10.75160156 11.11023438 11.36648437 11 12 C10.34 12 9.68 12 9 12 C9.33 12.99 9.66 13.98 10 15 C9.34 15 8.68 15 8 15 C8 11.37 8 7.74 8 4 C5.69 3.67 3.38 3.34 1 3 C0.67 2.01 0.34 1.02 0 0 Z " fill="#1DD7FC" transform="translate(167,157)"/>
<path d="M0 0 C9.57 0 19.14 0 29 0 C25.19840121 1.90079939 24.01795859 2.24412145 20.015625 2.1953125 C19.17290039 2.19031738 18.33017578 2.18532227 17.46191406 2.18017578 C15.8720166 2.15286377 15.8720166 2.15286377 14.25 2.125 C10.8675 2.08375 7.485 2.0425 4 2 C4 9.59 4 17.18 4 25 C3.67 25 3.34 25 3 25 C2.67 18.73 2.34 12.46 2 6 C1.67 6 1.34 6 1 6 C0.67 4.02 0.34 2.04 0 0 Z " fill="#BBF1FD" transform="translate(120,51)"/>
<path d="M0 0 C0.99 0.33 1.98 0.66 3 1 C2.34 1 1.68 1 1 1 C1 9.91 1 18.82 1 28 C4.279375 27.7834375 4.279375 27.7834375 7.625 27.5625 C9.46964844 27.44068359 9.46964844 27.44068359 11.3515625 27.31640625 C14.61532388 27.03336056 17.77943859 26.58961047 21 26 C20.67 27.32 20.34 28.64 20 30 C13.4 29.67 6.8 29.34 0 29 C0 19.43 0 9.86 0 0 Z " fill="#F5FDFE" transform="translate(123,17)"/>
<path d="M0 0 C2.31 0.33 4.62 0.66 7 1 C2 5 2 5 -0.5625 6.875 C-3.33623135 9.29312476 -5.08269792 11.87550772 -7 15 C-7.6875 13.375 -7.6875 13.375 -8 11 C-6.54963227 7.44659906 -5.06114288 4.39567703 -2 2 C-1.34 2 -0.68 2 0 2 C0 1.34 0 0.68 0 0 Z " fill="#65E3FD" transform="translate(29,85)"/>
<path d="M0 0 C1.65 0.33 3.3 0.66 5 1 C5 1.99 5 2.98 5 4 C5.33 4.99 5.66 5.98 6 7 C6.66 7 7.32 7 8 7 C9.54296875 8.86328125 9.54296875 8.86328125 11.1875 11.3125 C11.73792969 12.11300781 12.28835937 12.91351563 12.85546875 13.73828125 C13.42201172 14.85783203 13.42201172 14.85783203 14 16 C13.67 16.99 13.34 17.98 13 19 C11 17 11 17 10 15 C9.34 15 8.68 15 8 15 C7.79375 14.278125 7.5875 13.55625 7.375 12.8125 C6.03206506 10.06558762 5.24862882 9.19840859 2.9375 7.375 C0 5 0 5 -1 2 C-0.67 1.34 -0.34 0.68 0 0 Z " fill="#84E6FE" transform="translate(139,18)"/>
<path d="M0 0 C0.99 0.66 1.98 1.32 3 2 C1.68774191 5.93677426 -0.1961394 6.8271782 -3.5625 9.1875 C-4.57441406 9.90292969 -5.58632812 10.61835938 -6.62890625 11.35546875 C-7.41136719 11.89816406 -8.19382813 12.44085938 -9 13 C-9.66 12.01 -10.32 11.02 -11 10 C-10.67 9.01 -10.34 8.02 -10 7 C-8.68 7 -7.36 7 -6 7 C-6 6.34 -6 5.68 -6 5 C-5.01 5 -4.02 5 -3 5 C-2.67 4.01 -2.34 3.02 -2 2 C-1.34 2 -0.68 2 0 2 C0 1.34 0 0.68 0 0 Z " fill="#5ADCFD" transform="translate(199,151)"/>
<path d="M0 0 C3.625 0.375 3.625 0.375 7 1 C7 1.66 7 2.32 7 3 C6.01 3.66 5.02 4.32 4 5 C3.67 5.66 3.34 6.32 3 7 C2.01 7 1.02 7 0 7 C0 6.34 0 5.68 0 5 C-2.46082467 5.95698737 -4.81755638 6.89804621 -7.125 8.1875 C-9 9 -9 9 -12 8 C-11.505 7.54625 -11.01 7.0925 -10.5 6.625 C-8.77390663 5.12364481 -8.77390663 5.12364481 -9 3 C-7.88625 2.87625 -6.7725 2.7525 -5.625 2.625 C-1.96896323 2.3534187 -1.96896323 2.3534187 0 0 Z " fill="#7FE6FD" transform="translate(97,16)"/>
<path d="M0 0 C4.37040631 0.87894782 7.30389268 3.23741811 10.75 5.9375 C11.35199219 6.39318359 11.95398438 6.84886719 12.57421875 7.31835938 C14.09145961 8.49327492 15.55116855 9.74169407 17 11 C17 11.66 17 12.32 17 13 C17.66 13.33 18.32 13.66 19 14 C12.44191919 13.50505051 12.44191919 13.50505051 10.25 11 C9.63125 10.01 9.63125 10.01 9 9 C8.01 8.67 7.02 8.34 6 8 C6 6.68 6 5.36 6 4 C4.35 4 2.7 4 1 4 C0.67 2.68 0.34 1.36 0 0 Z " fill="#63D8FD" transform="translate(175,133)"/>
<path d="M0 0 C1.98 0.99 3.96 1.98 6 3 C2.66463131 6.89126347 -1.26210499 9.17099741 -6 11 C-6.99 11 -7.98 11 -9 11 C-9 10.01 -9 9.02 -9 8 C-7.35 8 -5.7 8 -4 8 C-3.67 6.35 -3.34 4.7 -3 3 C-2.34 3 -1.68 3 -1 3 C-0.67 2.01 -0.34 1.02 0 0 Z " fill="#25E1FE" transform="translate(170,87)"/>
<path d="M0 0 C-4.07739136 4.07739136 -8.47247634 5.59102338 -14 7 C-12.68 7.33 -11.36 7.66 -10 8 C-10 8.33 -10 8.66 -10 9 C-14.29 9.99 -18.58 10.98 -23 12 C-23 11.34 -23 10.68 -23 10 C-18.35522669 6.0003341 -5.94425733 -2.97212867 0 0 Z " fill="#8BE6FD" transform="translate(96,11)"/>
<path d="M0 0 C0.66 0 1.32 0 2 0 C1 3 1 3 -1 4 C-1.11859375 4.63421875 -1.2371875 5.2684375 -1.359375 5.921875 C-2 8 -2 8 -3.890625 9.265625 C-11.75674619 12.54751662 -11.75674619 12.54751662 -16 12 C-4.07692308 2 -4.07692308 2 0 2 C0 1.34 0 0.68 0 0 Z " fill="#7EE2FD" transform="translate(103,125)"/>
<path d="M0 0 C-0.33 1.32 -0.66 2.64 -1 4 C-1.66 4 -2.32 4 -3 4 C-2.34 6.31 -1.68 8.62 -1 11 C-2.32 10.67 -3.64 10.34 -5 10 C-5 10.66 -5 11.32 -5 12 C-5.66 12 -6.32 12 -7 12 C-7 13.98 -7 15.96 -7 18 C-7.66 17.34 -8.32 16.68 -9 16 C-8.57713598 11.34849574 -6.95149174 6.24491151 -5 2 C-2 0 -2 0 0 0 Z " fill="#30DCFD" transform="translate(14,89)"/>
<path d="M0 0 C0.33 0.66 0.66 1.32 1 2 C0.34 2.66 -0.32 3.32 -1 4 C0.6396875 4.4021875 0.6396875 4.4021875 2.3125 4.8125 C7.13357731 6.36505032 7.13357731 6.36505032 9 9 C9 9.66 9 10.32 9 11 C9.66 11.33 10.32 11.66 11 12 C9.328125 12.734375 9.328125 12.734375 7 13 C4.421875 11.453125 4.421875 11.453125 1.75 9.25 C0.85796875 8.53328125 -0.0340625 7.8165625 -0.953125 7.078125 C-3 5 -3 5 -3 2 C-2.01 1.34 -1.02 0.68 0 0 Z " fill="#85E9FD" transform="translate(46,150)"/>
<path d="M0 0 C3.74037139 0.80228256 7.47003352 1.52816319 11.25 2.125 C10.92 1.135 10.59 0.145 10.25 -0.875 C11.24 -0.545 12.23 -0.215 13.25 0.125 C12.59 1.775 11.93 3.425 11.25 5.125 C9.49970238 4.81417128 7.74977306 4.50126821 6 4.1875 C4.53820312 3.92646484 4.53820312 3.92646484 3.046875 3.66015625 C0.25 3.125 0.25 3.125 -1.984375 2.43359375 C-2.56703125 2.33175781 -3.1496875 2.22992188 -3.75 2.125 C-4.41 2.785 -5.07 3.445 -5.75 4.125 C-6.08 2.805 -6.41 1.485 -6.75 0.125 C-4.10011692 -1.19994154 -2.86624372 -0.63404785 0 0 Z " fill="#6DDCFC" transform="translate(67.75,43.875)"/>
<path d="M0 0 C4.98012761 1.50912958 8.24259942 4.55661849 12 8 C11.01 8.495 11.01 8.495 10 9 C9.67 9.66 9.34 10.32 9 11 C8.01 10.34 7.02 9.68 6 9 C6 8.34 6 7.68 6 7 C5.195625 6.773125 4.39125 6.54625 3.5625 6.3125 C2.716875 5.879375 1.87125 5.44625 1 5 C0.1875 2.375 0.1875 2.375 0 0 Z " fill="#61E5FD" transform="translate(84,84)"/>
<path d="M0 0 C0.99 0.33 1.98 0.66 3 1 C3 1.66 3 2.32 3 3 C4.32 3.33 5.64 3.66 7 4 C6.34 5.98 5.68 7.96 5 10 C4.01 10 3.02 10 2 10 C1.67 9.01 1.34 8.02 1 7 C-0.29355827 5.62804426 -1.62298702 4.28817344 -3 3 C-2.01 2.34 -1.02 1.68 0 1 C0 0.67 0 0.34 0 0 Z " fill="#11E8FE" transform="translate(180,43)"/>
<path d="M0 0 C0 2.87137415 -0.27113266 5.2303041 -1 8 C-1.99 8.495 -1.99 8.495 -3 9 C-3.268125 9.928125 -3.53625 10.85625 -3.8125 11.8125 C-5.19720178 15.5293311 -6.77575097 16.79393487 -10 19 C-9.41218645 14.64373792 -7.80652583 11.56809417 -5.5625 7.8125 C-4.94503906 6.76707031 -4.32757813 5.72164062 -3.69140625 4.64453125 C-2 2 -2 2 0 0 Z " fill="#77E3FC" transform="translate(59,36)"/>
<path d="M0 0 C1.32 0.66 2.64 1.32 4 2 C-1.94 6.95 -1.94 6.95 -8 12 C-8.66 11.67 -9.32 11.34 -10 11 C-9.34 9.35 -8.68 7.7 -8 6 C-7.01 6 -6.02 6 -5 6 C-4.34 4.68 -3.68 3.36 -3 2 C-2.67 2.33 -2.34 2.66 -2 3 C-1.34 2.01 -0.68 1.02 0 0 Z " fill="#7FE2FD" transform="translate(114,134)"/>
<path d="M0 0 C1 2 1 2 0.44140625 3.71484375 C0.15136719 4.44832031 -0.13867188 5.18179688 -0.4375 5.9375 C-3.05881966 14.00401551 -2.23213896 22.62580211 -2 31 C-1.34 31 -0.68 31 0 31 C-0.33 32.98 -0.66 34.96 -1 37 C-5.7832144 27.75245216 -5.51721942 14.77691338 -2.5625 4.875 C-1.2722372 1.2722372 -1.2722372 1.2722372 0 0 Z " fill="#DCF6FE" transform="translate(7,95)"/>
<path d="M0 0 C3.43380512 -0.39243487 4.67927348 -0.24054489 7.5 1.875 C8.325 2.57625 9.15 3.2775 10 4 C10.9075 4.309375 11.815 4.61875 12.75 4.9375 C13.4925 5.288125 14.235 5.63875 15 6 C15.8125 8.625 15.8125 8.625 16 11 C15.34 11 14.68 11 14 11 C14 10.34 14 9.68 14 9 C13.360625 8.773125 12.72125 8.54625 12.0625 8.3125 C7.86679739 6.51434174 3.96099444 4.26095979 0 2 C0 1.34 0 0.68 0 0 Z " fill="#70E0FD" transform="translate(147,20)"/>
<path d="M0 0 C7.42857143 -0.28571429 7.42857143 -0.28571429 11 2 C9.68 2 8.36 2 7 2 C7.33 3.32 7.66 4.64 8 6 C5.1875 6.25 5.1875 6.25 2 6 C0.125 4 0.125 4 -1 2 C-0.67 1.34 -0.34 0.68 0 0 Z " fill="#0AE3FD" transform="translate(71,40)"/>
<path d="M0 0 C0.99 0.33 1.98 0.66 3 1 C3 1.66 3 2.32 3 3 C4.32 3.66 5.64 4.32 7 5 C6.65120368 8.25543229 5.97866739 9.01873107 3.4375 11.25 C2.633125 11.8275 1.82875 12.405 1 13 C0.34 12.67 -0.32 12.34 -1 12 C-1 11.01 -1 10.02 -1 9 C-0.34 9 0.32 9 1 9 C1.33 6.69 1.66 4.38 2 2 C1.34 2 0.68 2 0 2 C0 1.34 0 0.68 0 0 Z " fill="#72DFFC" transform="translate(109,104)"/>
<path d="M0 0 C0.82638376 2.89234315 1 4.88742431 1 8 C1.66 8.33 2.32 8.66 3 9 C3.33 8.01 3.66 7.02 4 6 C4.66 6 5.32 6 6 6 C5.34 7.98 4.68 9.96 4 12 C1.69 12 -0.62 12 -3 12 C-2.40075776 7.80530429 -1.42500059 3.99000166 0 0 Z " fill="#23D0FC" transform="translate(50,53)"/>
<path d="M0 0 C0.99 0 1.98 0 3 0 C3 3.63 3 7.26 3 11 C3.33 10.01 3.66 9.02 4 8 C6.0625 7.3125 6.0625 7.3125 8 7 C8 6.34 8 5.68 8 5 C9.65 5.33 11.3 5.66 13 6 C8.04087193 11.13623978 8.04087193 11.13623978 5 13 C4.01 12.67 3.02 12.34 2 12 C2 8.37 2 4.74 2 1 C1.34 0.67 0.68 0.34 0 0 Z " fill="#AEEBFD" transform="translate(172,161)"/>
<path d="M0 0 C5.15464734 0.48324819 8.81550319 3.18610761 13 6 C12.67 6.66 12.34 7.32 12 8 C7.57257117 6.87143971 3.67545514 5.78443571 0 3 C0 2.01 0 1.02 0 0 Z " fill="#5EE6FB" transform="translate(205,71)"/>
<path d="M0 0 C4.29 0 8.58 0 13 0 C13 1.32 13 2.64 13 4 C11.58506449 4.10884119 10.16767057 4.18597617 8.75 4.25 C7.96109375 4.29640625 7.1721875 4.3428125 6.359375 4.390625 C4 4 4 4 0 0 Z " fill="#0BDAFC" transform="translate(123,46)"/>
<path d="M0 0 C0.598125 0.33 1.19625 0.66 1.8125 1 C4.05386471 2.20787988 4.05386471 2.20787988 7 2 C7 2.66 7 3.32 7 4 C7.66 4 8.32 4 9 4 C9.33 4.99 9.66 5.98 10 7 C13.00847418 8.22520264 13.00847418 8.22520264 16 9 C15.01 10.485 15.01 10.485 14 12 C13.34 12 12.68 12 12 12 C12 11.34 12 10.68 12 10 C11.42765625 9.731875 10.8553125 9.46375 10.265625 9.1875 C7.92115366 7.95867364 5.87595062 6.57477824 3.75 5 C3.04359375 4.484375 2.3371875 3.96875 1.609375 3.4375 C0.81273438 2.7259375 0.81273438 2.7259375 0 2 C0 1.34 0 0.68 0 0 Z " fill="#8EE2FC" transform="translate(91,109)"/>
<path d="M0 0 C0.33 0.99 0.66 1.98 1 3 C1.99 3.33 2.98 3.66 4 4 C4.33 5.65 4.66 7.3 5 9 C3.02 9 1.04 9 -1 9 C-1.66 7.02 -2.32 5.04 -3 3 C-2.01 2.01 -1.02 1.02 0 0 Z " fill="#13E2FC" transform="translate(155,50)"/>
<path d="M0 0 C1.32 0.66 2.64 1.32 4 2 C4 3.32 4 4.64 4 6 C4.66 6 5.32 6 6 6 C8 9 8 9 8 12 C6.68 11.67 5.36 11.34 4 11 C4 10.01 4 9.02 4 8 C2.68 7.67 1.36 7.34 0 7 C-0.38133299 5.0085944 -0.71325582 3.00720923 -1 1 C-0.67 0.67 -0.34 0.34 0 0 Z " fill="#14EAFE" transform="translate(143,27)"/>
<path d="M0 0 C1.32 0.33 2.64 0.66 4 1 C-5.58252427 10 -5.58252427 10 -12 10 C-12 9.01 -12 8.02 -12 7 C-10.35 7 -8.7 7 -7 7 C-7 6.01 -7 5.02 -7 4 C-5.02 4 -3.04 4 -1 4 C-0.67 2.68 -0.34 1.36 0 0 Z " fill="#69DBFD" transform="translate(219,149)"/>
<path d="M0 0 C0 0.33 0 0.66 0 1 C5.445 1.495 5.445 1.495 11 2 C11 2.33 11 2.66 11 3 C7.79168609 3.0292483 4.58340693 3.04688189 1.375 3.0625 C0.01955078 3.07506836 0.01955078 3.07506836 -1.36328125 3.08789062 C-6.02904289 3.10491895 -10.41013285 2.96829423 -15 2 C-15 1.67 -15 1.34 -15 1 C-9.91913204 0.15318867 -5.15171623 -0.09038099 0 0 Z " fill="#89E7FD" transform="translate(105,50)"/>
<path d="M0 0 C2.475 0.99 2.475 0.99 5 2 C5.33 4.31 5.66 6.62 6 9 C5.01 9 4.02 9 3 9 C0.50022457 5.66696609 0 4.26696398 0 0 Z M7 1 C7 4 7 4 7 4 Z " fill="#4EDEFD" transform="translate(8,135)"/>
<path d="M0 0 C0.928125 0.20625 1.85625 0.4125 2.8125 0.625 C2.05422908 1.79987036 1.28042245 2.96472592 0.5 4.125 C0.07074219 4.7746875 -0.35851562 5.424375 -0.80078125 6.09375 C-1.25839844 6.5990625 -1.71601562 7.104375 -2.1875 7.625 C-3.1775 7.625 -4.1675 7.625 -5.1875 7.625 C-5.5175 5.645 -5.8475 3.665 -6.1875 1.625 C-3.1875 -0.375 -3.1875 -0.375 0 0 Z " fill="#3EE6FE" transform="translate(102.1875,24.375)"/>
<path d="M0 0 C1.32 0.33 2.64 0.66 4 1 C1.59660228 3.76390737 0.83736322 4.04065919 -3 5 C-3.33 8.96 -3.66 12.92 -4 17 C-4.33 17 -4.66 17 -5 17 C-6.20568053 12.32798795 -6.09382426 7.78503708 -6 3 C-4.02 2.67 -2.04 2.34 0 2 C0 1.34 0 0.68 0 0 Z " fill="#1ACEF9" transform="translate(74,156)"/>
<path d="M0 0 C1.65 0.33 3.3 0.66 5 1 C1.56638098 4.63559661 -1.7973607 7.36113346 -6 10 C-6 8.35 -6 6.7 -6 5 C-4.35 4.67 -2.7 4.34 -1 4 C-0.67 2.68 -0.34 1.36 0 0 Z " fill="#5DDCFB" transform="translate(127,123)"/>
<path d="M0 0 C4.29 0 8.58 0 13 0 C13 0.33 13 0.66 13 1 C11.2984375 1.4640625 11.2984375 1.4640625 9.5625 1.9375 C6.21224901 2.62924531 6.21224901 2.62924531 5 4 C7.97 4.33 10.94 4.66 14 5 C13.67 5.66 13.34 6.32 13 7 C8.71 6.67 4.42 6.34 0 6 C0.99 4.35 1.98 2.7 3 1 C2.01 0.67 1.02 0.34 0 0 Z " fill="#0FC3F9" transform="translate(103,46)"/>
<path d="M0 0 C0.66 0.33 1.32 0.66 2 1 C1.67 2.32 1.34 3.64 1 5 C1.66 5 2.32 5 3 5 C3.66 5.66 4.32 6.32 5 7 C4.67 7.99 4.34 8.98 4 10 C3.01 9.67 2.02 9.34 1 9 C1 8.34 1 7.68 1 7 C-0.65 6.67 -2.3 6.34 -4 6 C-4 4.68 -4 3.36 -4 2 C-2.125 0.9375 -2.125 0.9375 0 0 Z " fill="#5FE5FD" transform="translate(206,144)"/>
<path d="M0 0 C1.32 0.33 2.64 0.66 4 1 C3.67 1.33 3.34 1.66 3 2 C6.71279469 3.23759823 10.31306346 3.35608897 14.1875 3.5625 C14.93708984 3.60568359 15.68667969 3.64886719 16.45898438 3.69335938 C18.30578375 3.79922685 20.15286834 3.9000976 22 4 C22 4.33 22 4.66 22 5 C14.74 5 7.48 5 0 5 C0 3.35 0 1.7 0 0 Z " fill="#24DEFE" transform="translate(88,78)"/>
<path d="M0 0 C0.33 0.66 0.66 1.32 1 2 C1.66 2 2.32 2 3 2 C3.33 4.64 3.66 7.28 4 10 C2.68 10 1.36 10 0 10 C-2.21538462 4.58461538 -2.21538462 4.58461538 -1.125 1.625 C-0.75375 1.08875 -0.3825 0.5525 0 0 Z " fill="#0AF0FE" transform="translate(186,52)"/>
<path d="M0 0 C0.66 0.66 1.32 1.32 2 2 C-3.68839118 2.9802248 -9.17294333 3.11948801 -14.9375 3.0625 C-15.81212891 3.05798828 -16.68675781 3.05347656 -17.58789062 3.04882812 C-19.72529047 3.03714834 -21.86265463 3.01921689 -24 3 C-24 2.67 -24 2.34 -24 2 C-22.41058594 1.90912109 -22.41058594 1.90912109 -20.7890625 1.81640625 C-19.40102779 1.73199873 -18.01300768 1.64735083 -16.625 1.5625 C-15.92632812 1.52318359 -15.22765625 1.48386719 -14.5078125 1.44335938 C-9.38234311 1.12301754 -5.21686297 -0.2794748 0 0 Z " fill="#26C7FC" transform="translate(149,49)"/>
<path d="M0 0 C2.21460369 1.82945522 2.94372483 2.67038832 3.4375 5.5625 C3.73987379 8.17317795 3.73987379 8.17317795 6.0625 9.3125 C6.701875 9.539375 7.34125 9.76625 8 10 C8 10.66 8 11.32 8 12 C7.34 12 6.68 12 6 12 C6 11.34 6 10.68 6 10 C5.4225 9.979375 4.845 9.95875 4.25 9.9375 C0.61609879 8.4233745 -0.24850416 5.44043825 -2 2 C-1.34 1.34 -0.68 0.68 0 0 Z " fill="#51DAFD" transform="translate(17,144)"/>
<path d="M0 0 C4.29 0 8.58 0 13 0 C13 0.99 13 1.98 13 3 C11.58344207 3.0272415 10.16672955 3.04650467 8.75 3.0625 C7.56664063 3.07990234 7.56664063 3.07990234 6.359375 3.09765625 C4.09308998 3.00385306 2.1711105 2.63241063 0 2 C0 1.34 0 0.68 0 0 Z " fill="#06F2FF" transform="translate(93,47)"/>
<path d="M0 0 C-3.34520258 1.93242285 -6.44767482 2.5463853 -10.25 3.125 C-11.32765625 3.29257813 -12.4053125 3.46015625 -13.515625 3.6328125 C-14.33546875 3.75398437 -15.1553125 3.87515625 -16 4 C-15 1 -15 1 -13.0625 -0.25 C-8.60405097 -1.34186507 -4.50284228 -0.64701035 0 0 Z " fill="#4DD5FC" transform="translate(111,9)"/>
<path d="M0 0 C2.9719385 1.12451727 5.33440687 2.22293791 8 4 C8 4.66 8 5.32 8 6 C5.69 6 3.38 6 1 6 C1 5.34 1 4.68 1 4 C0.34 4 -0.32 4 -1 4 C-0.67 2.68 -0.34 1.36 0 0 Z " fill="#8CCAF1" transform="translate(39,157)"/>
<path d="M0 0 C0.66 0.33 1.32 0.66 2 1 C2 3.64 2 6.28 2 9 C2.66 9.33 3.32 9.66 4 10 C3.01 10.99 2.02 11.98 1 13 C1 11.02 1 9.04 1 7 C-0.98 7.66 -2.96 8.32 -5 9 C-3.7508258 5.54074837 -2.32472205 2.85306797 0 0 Z " fill="#8AE9FE" transform="translate(95,23)"/>
<path d="M0 0 C0.66 0.33 1.32 0.66 2 1 C2 1.66 2 2.32 2 3 C1.34 3.66 0.68 4.32 0 5 C-0.928125 5.99 -0.928125 5.99 -1.875 7 C-3.86449538 8.87246624 -5.51018484 9.93293636 -8 11 C-6.53333333 5.5 -6.53333333 5.5 -4 3.125 C-2 2 -2 2 0 2 C0 1.34 0 0.68 0 0 Z " fill="#57DAFD" transform="translate(143,92)"/>
<path d="M0 0 C0.66 0.33 1.32 0.66 2 1 C2 2.32 2 3.64 2 5 C-3.94 5 -9.88 5 -16 5 C-16 4.67 -16 4.34 -16 4 C-11.38 3.67 -6.76 3.34 -2 3 C-2 2.34 -2 1.68 -2 1 C-1.34 0.67 -0.68 0.34 0 0 Z " fill="#0BDDFD" transform="translate(149,78)"/>
<path d="M0 0 C0.99 0 1.98 0 3 0 C3.33 1.98 3.66 3.96 4 6 C2.68 6.33 1.36 6.66 0 7 C0 6.34 0 5.68 0 5 C-1.65 5.66 -3.3 6.32 -5 7 C-3.25 3.125 -3.25 3.125 -1 2 C-0.67 1.34 -0.34 0.68 0 0 Z " fill="#19D6FB" transform="translate(101,19)"/>
<path d="M0 0 C-2.25740623 2.33524782 -4.2805761 4.18705073 -7 6 C-7.99 5.67 -8.98 5.34 -10 5 C-10 4.34 -10 3.68 -10 3 C-9.01 3 -8.02 3 -7 3 C-7 2.34 -7 1.68 -7 1 C-7.66 0.67 -8.32 0.34 -9 0 C-5.67465243 -1.10844919 -3.37817425 -0.84454356 0 0 Z " fill="#7FE6FC" transform="translate(104,146)"/>
<path d="M0 0 C0.33 0.66 0.66 1.32 1 2 C0.22265625 3.7265625 0.22265625 3.7265625 -0.9375 5.625 C-1.618125 6.73875 -2.29875 7.8525 -3 9 C-5.475 8.01 -5.475 8.01 -8 7 C-5.42215154 4.35247996 -3.08351902 2.05567935 0 0 Z " fill="#63DDFD" transform="translate(153,85)"/>
<path d="M0 0 C0 2 0 2 -1.1875 3.5 C-3.32936961 5.27258175 -5.39451468 6.06469758 -8 7 C-8.99 7.495 -8.99 7.495 -10 8 C-10.66 7.34 -11.32 6.68 -12 6 C-10.56839732 4.99157547 -9.12948547 3.99352109 -7.6875 3 C-6.88699219 2.443125 -6.08648437 1.88625 -5.26171875 1.3125 C-3 0 -3 0 0 0 Z " fill="#77E0FD" transform="translate(32,72)"/>
<path d="M0 0 C0.33 0 0.66 0 1 0 C1 8.91 1 17.82 1 27 C0.01 26.01 -0.98 25.02 -2 24 C-1.67 23.34 -1.34 22.68 -1 22 C-0.84777027 20.33434251 -0.75082785 18.66343504 -0.68359375 16.9921875 C-0.64169922 16.00605469 -0.59980469 15.01992188 -0.55664062 14.00390625 C-0.51732422 12.97136719 -0.47800781 11.93882813 -0.4375 10.875 C-0.39431641 9.83472656 -0.35113281 8.79445313 -0.30664062 7.72265625 C-0.2003712 5.14857472 -0.09833417 2.57439492 0 0 Z " fill="#35E2FE" transform="translate(122,19)"/>
<path d="M0 0 C1.79158489 -0.02696365 3.58328473 -0.04637917 5.375 -0.0625 C6.37273437 -0.07410156 7.37046875 -0.08570313 8.3984375 -0.09765625 C11 0 11 0 13 1 C13 1.66 13 2.32 13 3 C13.66 3.33 14.32 3.66 15 4 C4.44191344 3.22095672 4.44191344 3.22095672 0 1 C0 0.67 0 0.34 0 0 Z " fill="#9DEAFD" transform="translate(155,157)"/>
<path d="M0 0 C0.33 0 0.66 0 1 0 C1.33 3.63 1.66 7.26 2 11 C-0.49092811 12.24546405 -1.41080733 11.7767578 -4 11 C-4 10.34 -4 9.68 -4 9 C-5.98 9 -7.96 9 -10 9 C-10 8.67 -10 8.34 -10 8 C-6.7 8 -3.4 8 0 8 C0 5.36 0 2.72 0 0 Z " fill="#A2DEFD" transform="translate(174,134)"/>
<path d="M0 0 C0.66 0.33 1.32 0.66 2 1 C-1.3 3.64 -4.6 6.28 -8 9 C-8.66 8.67 -9.32 8.34 -10 8 C-9.34 7.34 -8.68 6.68 -8 6 C-7.35232207 3.42938689 -7.35232207 3.42938689 -7 1 C-5.5459375 1.0309375 -5.5459375 1.0309375 -4.0625 1.0625 C-1.12534105 1.35618499 -1.12534105 1.35618499 0 0 Z " fill="#9CEBFE" transform="translate(165,96)"/>
<path d="M0 0 C1.32 0.33 2.64 0.66 4 1 C4 1.66 4 2.32 4 3 C5.65 3.33 7.3 3.66 9 4 C9 4.66 9 5.32 9 6 C7.3125 6.6875 7.3125 6.6875 5 7 C2.25 5.8125 2.25 5.8125 0 4 C0 2.68 0 1.36 0 0 Z " fill="#0AF1FF" transform="translate(149,16)"/>
<path d="M0 0 C1.99954746 -0.04254356 4.00041636 -0.04080783 6 0 C7 1 7 1 7.0625 3.5625 C7.041875 4.366875 7.02125 5.17125 7 6 C4.625 5.8125 4.625 5.8125 2 5 C0.6875 2.4375 0.6875 2.4375 0 0 Z " fill="#43E0FC" transform="translate(125,15)"/>
<path d="M0 0 C2.31 0.33 4.62 0.66 7 1 C7 1.99 7 2.98 7 4 C8.65 4.33 10.3 4.66 12 5 C10.02 5.99 10.02 5.99 8 7 C6.66382648 6.02471263 5.3311249 5.04466681 4 4.0625 C3.2575 3.51722656 2.515 2.97195312 1.75 2.41015625 C1.1725 1.94480469 0.595 1.47945312 0 1 C0 0.67 0 0.34 0 0 Z " fill="#69DCFC" transform="translate(129,141)"/>
<path d="M0 0 C0.33 0 0.66 0 1 0 C1.21432579 6.64409958 0.51233701 12.53205867 -1 19 C-1.33 19 -1.66 19 -2 19 C-2 15.04 -2 11.08 -2 7 C-1.34 7 -0.68 7 0 7 C0 4.69 0 2.38 0 0 Z " fill="#B8EEFE" transform="translate(236,111)"/>
<path d="M0 0 C0.99 0.33 1.98 0.66 3 1 C2.67 2.32 2.34 3.64 2 5 C2.66 5 3.32 5 4 5 C4 5.66 4 6.32 4 7 C2.125 7.625 2.125 7.625 0 8 C-2 6 -2 6 -2.125 3.375 C-2.08375 2.59125 -2.0425 1.8075 -2 1 C-1.34 0.67 -0.68 0.34 0 0 Z " fill="#07F1FF" transform="translate(13,92)"/>
<path d="M0 0 C1 2 1 2 1 4.4375 C0 7 0 7 -3.5625 8.8125 C-4.696875 9.204375 -5.83125 9.59625 -7 10 C-7.33 9.34 -7.66 8.68 -8 8 C-6.50260417 6.79557292 -5.00520833 5.59114583 -3.5078125 4.38671875 C-1.74707893 2.87729455 -1.74707893 2.87729455 0 0 Z " fill="#80E4FD" transform="translate(216,134)"/>
<path d="M0 0 C2 3 4 6 6 9 C5.67 9.66 5.34 10.32 5 11 C3.125 10.875 3.125 10.875 1 10 C-0.40666215 6.98572397 -1.14845728 4.94022947 -0.625 1.625 C-0.41875 1.08875 -0.2125 0.5525 0 0 Z " fill="#77E2FD" transform="translate(19,126)"/>
<path d="M0 0 C0.33 0.66 0.66 1.32 1 2 C1.66 2.33 2.32 2.66 3 3 C-2.5 7 -2.5 7 -7 7 C-7 6.34 -7 5.68 -7 5 C-5.46875 3.7109375 -5.46875 3.7109375 -3.5 2.375 C-2.8503125 1.92898437 -2.200625 1.48296875 -1.53125 1.0234375 C-1.0259375 0.68570313 -0.520625 0.34796875 0 0 Z " fill="#6BE3FC" transform="translate(117,114)"/>
<path d="M0 0 C6.56756757 4.13513514 6.56756757 4.13513514 8.5625 8.125 C9 11 9 11 7 14 C4.66666667 9.33333333 2.33333333 4.66666667 0 0 Z " fill="#A4E4FC" transform="translate(213,92)"/>
<path d="M0 0 C4.30764815 1.56641751 8.06171464 3.68336156 12 6 C8.67465243 7.10844919 6.37817425 6.84454356 3 6 C2.67 5.01 2.34 4.02 2 3 C1.34 2.67 0.68 2.34 0 2 C0 1.34 0 0.68 0 0 Z " fill="#81E3F9" transform="translate(72,77)"/>
<path d="M0 0 C0.66 1.32 1.32 2.64 2 4 C2.66 4 3.32 4 4 4 C3.67 7.96 3.34 11.92 3 16 C2.67 16 2.34 16 2 16 C1.34 10.72 0.68 5.44 0 0 Z " fill="#A5EBFD" transform="translate(152,55)"/>
<path d="M0 0 C2.83222793 3.37169992 4.52103176 6.85888893 6 11 C5.6875 13.4375 5.6875 13.4375 5 15 C3.74335022 12.09399739 3 10.20395416 3 7 C2.01 7 1.02 7 0 7 C-1.125 2.25 -1.125 2.25 0 0 Z " fill="#9EE3FD" transform="translate(187,47)"/>
<path d="M0 0 C1.32 0 2.64 0 4 0 C4.93423645 3.01031744 5.04449911 3.86650268 4 7 C3.34 7 2.68 7 2 7 C2 6.34 2 5.68 2 5 C1.01 5 0.02 5 -1 5 C-0.67 3.35 -0.34 1.7 0 0 Z " fill="#1CE0FE" transform="translate(92,30)"/>
<path d="M0 0 C4.47238653 1.41807378 8.71146306 3.11304374 13 5 C9.18243176 6.37432457 5.92744671 5.67975039 2 5 C1.34 3.35 0.68 1.7 0 0 Z " fill="#8DE0FE" transform="translate(149,135)"/>
<path d="M0 0 C3.34252724 -0.07427838 5.8035914 -0.06546953 9 1 C9 2.65 9 4.3 9 6 C5.06326356 4.68775452 2.77280706 3.08089673 0 0 Z " fill="#86E8FE" transform="translate(69,94)"/>
<path d="M0 0 C2.97 0.495 2.97 0.495 6 1 C5.67 3.64 5.34 6.28 5 9 C4.67 8.34 4.34 7.68 4 7 C1.47266765 6.34444881 1.47266765 6.34444881 -1 6 C-0.01 5.67 0.98 5.34 2 5 C2 4.01 2 3.02 2 2 C1.34 1.34 0.68 0.68 0 0 Z " fill="#11C7FA" transform="translate(78,42)"/>
<path d="M0 0 C0.99 0.33 1.98 0.66 3 1 C3 1.66 3 2.32 3 3 C4.2065625 3.433125 4.2065625 3.433125 5.4375 3.875 C8 5 8 5 9 7 C8.34 7.66 7.68 8.32 7 9 C5 7.625 5 7.625 3 6 C3 5.34 3 4.68 3 4 C2.34 4 1.68 4 1 4 C0.67 2.68 0.34 1.36 0 0 Z " fill="#7CE4FB" transform="translate(27,139)"/>
<path d="M0 0 C0.66 0.33 1.32 0.66 2 1 C1.01 1.33 0.02 1.66 -1 2 C-1.33 2.99 -1.66 3.98 -2 5 C-4.80777919 7.15983015 -6.14790181 6.98520982 -9.75 6.625 C-10.8225 6.41875 -11.895 6.2125 -13 6 C-10.14491782 4.559422 -7.27682755 3.15665758 -4.375 1.8125 C-3.59898438 1.44769531 -2.82296875 1.08289063 -2.0234375 0.70703125 C-1.35570313 0.47371094 -0.68796875 0.24039063 0 0 Z " fill="#A6EBFD" transform="translate(85,137)"/>
<path d="M0 0 C3.79588866 0.54226981 5.47211993 2.20127563 8 5 C6.02 5.99 6.02 5.99 4 7 C4 6.34 4 5.68 4 5 C3.01 4.67 2.02 4.34 1 4 C0.3125 1.9375 0.3125 1.9375 0 0 Z " fill="#5CE2FC" transform="translate(207,85)"/>
<path d="M0 0 C0.66 0.33 1.32 0.66 2 1 C0.47793991 3.62901288 -0.84365964 5.84365964 -3 8 C-4.32 7.67 -5.64 7.34 -7 7 C-4.69 4.69 -2.38 2.38 0 0 Z " fill="#75DBFE" transform="translate(71,23)"/>
<path d="M0 0 C0.8353125 0.37125 0.8353125 0.37125 1.6875 0.75 C0.3675 1.08 -0.9525 1.41 -2.3125 1.75 C-1.9825 2.74 -1.6525 3.73 -1.3125 4.75 C-2.6325 5.74 -3.9525 6.73 -5.3125 7.75 C-5.9725 7.42 -6.6325 7.09 -7.3125 6.75 C-7.3125 5.76 -7.3125 4.77 -7.3125 3.75 C-3.21493902 -0.34756098 -3.21493902 -0.34756098 0 0 Z " fill="#59E7FE" transform="translate(114.3125,15.25)"/>
<path d="M0 0 C0.33 0.66 0.66 1.32 1 2 C1.66 2.33 2.32 2.66 3 3 C1.49760034 6.61941735 0.17854707 9.7321794 -2 13 C-2.19294408 8.17639811 -1.75747614 4.50353262 0 0 Z " fill="#12C3FC" transform="translate(80,61)"/>
<path d="M0 0 C3.96 0 7.92 0 12 0 C12 0.66 12 1.32 12 2 C9.03 2 6.06 2 3 2 C2.67 2.66 2.34 3.32 2 4 C1.34 2.68 0.68 1.36 0 0 Z " fill="#10CAF9" transform="translate(85,49)"/>
<path d="M0 0 C0.99 0.33 1.98 0.66 3 1 C2.67 1.66 2.34 2.32 2 3 C-0.06640625 3.6328125 -0.06640625 3.6328125 -2.5625 4.125 C-3.38878906 4.29257812 -4.21507812 4.46015625 -5.06640625 4.6328125 C-5.70449219 4.75398438 -6.34257812 4.87515625 -7 5 C-6.67 3.68 -6.34 2.36 -6 1 C-4.7934375 1.0309375 -4.7934375 1.0309375 -3.5625 1.0625 C-1.06645115 1.29633621 -1.06645115 1.29633621 0 0 Z " fill="#79E3FC" transform="translate(174,42)"/>
<path d="M0 0 C0.33 0.99 0.66 1.98 1 3 C1.99 3.33 2.98 3.66 4 4 C3.34 4 2.68 4 2 4 C1.67 4.66 1.34 5.32 1 6 C-1.31 6 -3.62 6 -6 6 C-5.67 5.01 -5.34 4.02 -5 3 C-4.01 3.33 -3.02 3.66 -2 4 C-2.33 3.01 -2.66 2.02 -3 1 C-2.01 0.67 -1.02 0.34 0 0 Z " fill="#0EE6FE" transform="translate(172,38)"/>
<path d="M0 0 C0.99 0.66 1.98 1.32 3 2 C1.75453595 5.73639216 0.36595047 6.18756513 -3 8 C-3 6.35 -3 4.7 -3 3 C-2.01 2.67 -1.02 2.34 0 2 C0 1.34 0 0.68 0 0 Z " fill="#7DD9FC" transform="translate(199,151)"/>
<path d="M0 0 C2.42479736 3.63719605 2.38662577 5.85703482 2.625 10.1875 C2.69976562 11.45980469 2.77453125 12.73210937 2.8515625 14.04296875 C2.92503906 15.50669922 2.92503906 15.50669922 3 17 C2.34 17 1.68 17 1 17 C0.67 17.66 0.34 18.32 0 19 C0 12.73 0 6.46 0 0 Z " fill="#D7F6FE" transform="translate(221,106)"/>
<path d="M0 0 C2.5 1.375 2.5 1.375 5 3 C5 3.66 5 4.32 5 5 C4.34 5 3.68 5 3 5 C3 6.65 3 8.3 3 10 C2.67 8.68 2.34 7.36 2 6 C0.68 5.67 -0.64 5.34 -2 5 C-1.34 3.35 -0.68 1.7 0 0 Z " fill="#2CE9FE" transform="translate(81,57)"/>
<path d="M0 0 C-1 3 -1 3 -3.375 4.1875 C-6 5 -6 5 -9 5 C-6.81610567 0.16423399 -5.20641855 -0.13701101 0 0 Z " fill="#1BDFFE" transform="translate(81,21)"/>
<path d="M0 0 C3.93673644 1.31224548 6.22719294 2.91910327 9 6 C7.68 6.33 6.36 6.66 5 7 C4.731875 6.360625 4.46375 5.72125 4.1875 5.0625 C3.11332248 2.66868314 3.11332248 2.66868314 0 2 C0 1.34 0 0.68 0 0 Z " fill="#6FD4FD" transform="translate(137,127)"/>
<path d="M0 0 C0.66 0 1.32 0 2 0 C1 3 1 3 -1 4 C-1.65213292 6.02463255 -1.65213292 6.02463255 -2 8 C-3.65 8 -5.3 8 -7 8 C-6.34 7.67 -5.68 7.34 -5 7 C-5 6.01 -5 5.02 -5 4 C-3.35 3.34 -1.7 2.68 0 2 C0 1.34 0 0.68 0 0 Z " fill="#58CEFC" transform="translate(103,125)"/>
<path d="M0 0 C2.97 0.495 2.97 0.495 6 1 C3.47211993 3.79872437 1.79588866 5.45773019 -2 6 C-1.34 4.02 -0.68 2.04 0 0 Z " fill="#88EBFD" transform="translate(170,89)"/>
<path d="M0 0 C-2.6855594 2.6855594 -5.37621328 3.06049974 -9 4 C-8.6875 2.0625 -8.6875 2.0625 -8 0 C-4.71023192 -1.09658936 -3.28696233 -0.79953138 0 0 Z " fill="#81E5FD" transform="translate(185,86)"/>
<path d="M0 0 C1.65 0 3.3 0 5 0 C5 3.3 5 6.6 5 10 C4.34 9.67 3.68 9.34 3 9 C2.62243192 7.67851173 2.2981424 6.34164079 2 5 C1.3530635 3.3255761 0.69040574 1.65697379 0 0 Z " fill="#8AE3FC" transform="translate(143,34)"/>
<path d="M0 0 C2 3 2 3 1.75 5.5625 C1 8 1 8 -1 10 C-1.66 9.67 -2.32 9.34 -3 9 C-2.01 6.03 -1.02 3.06 0 0 Z " fill="#81E1FD" transform="translate(220,125)"/>
<path d="M0 0 C0 2.96200864 -0.06343771 5.19031313 -1 8 C-3.5625 9.3125 -3.5625 9.3125 -6 10 C-4.6302836 6.00499382 -2.74277578 3.19990508 0 0 Z " fill="#9CE8FC" transform="translate(59,36)"/>
<path d="M0 0 C1.98 0 3.96 0 6 0 C6.66 1.32 7.32 2.64 8 4 C7.01 4.495 7.01 4.495 6 5 C3.98079663 3.69593116 1.98075027 2.36176581 0 1 C0 0.67 0 0.34 0 0 Z " fill="#7EE4FE" transform="translate(139,148)"/>
<path d="M0 0 C0.66 0.33 1.32 0.66 2 1 C0.68775452 4.93673644 -0.91910327 7.22719294 -4 10 C-3.52449439 8.51965236 -3.04448784 7.04074979 -2.5625 5.5625 C-2.29566406 4.73878906 -2.02882812 3.91507813 -1.75390625 3.06640625 C-1 1 -1 1 0 0 Z " fill="#90E8FE" transform="translate(228,138)"/>
<path d="M0 0 C2.875 0.3125 2.875 0.3125 6 1 C6.66 1.99 7.32 2.98 8 4 C7.67 4.99 7.34 5.98 7 7 C5.83040013 6.02433888 4.66438823 5.044375 3.5 4.0625 C2.8503125 3.51722656 2.200625 2.97195312 1.53125 2.41015625 C1.0259375 1.94480469 0.520625 1.47945313 0 1 C0 0.67 0 0.34 0 0 Z " fill="#28D4FD" transform="translate(87,105)"/>
<path d="M0 0 C4.21912747 0.4794463 6.79663178 1.16625119 10 4 C9.01 4.33 8.02 4.66 7 5 C6.34 4.67 5.68 4.34 5 4 C5 3.34 5 2.68 5 2 C4.34 2 3.68 2 3 2 C2.67 2.99 2.34 3.98 2 5 C0 1.125 0 1.125 0 0 Z " fill="#88E8FE" transform="translate(58,71)"/>
<path d="M0 0 C0.33 0 0.66 0 1 0 C1 1.65 1 3.3 1 5 C-0.65 5.66 -2.3 6.32 -4 7 C-4.33 5.02 -4.66 3.04 -5 1 C-4.01 1.33 -3.02 1.66 -2 2 C-2 2.66 -2 3.32 -2 4 C-1.34 4 -0.68 4 0 4 C0 2.68 0 1.36 0 0 Z " fill="#7DEAFE" transform="translate(162,71)"/>
<path d="M0 0 C1.98 0.99 1.98 0.99 4 2 C4 2.99 4 3.98 4 5 C4.66 5.33 5.32 5.66 6 6 C5.34 6 4.68 6 4 6 C4.33 7.65 4.66 9.3 5 11 C2.77174356 8.77174356 2.30760631 7.34238372 1.375 4.375 C1.11460937 3.55773438 0.85421875 2.74046875 0.5859375 1.8984375 C0.39257812 1.27195313 0.19921875 0.64546875 0 0 Z " fill="#9DEBFD" transform="translate(178,48)"/>
<path d="M0 0 C0.66 0 1.32 0 2 0 C2 0.99 2 1.98 2 3 C1.34 3 0.68 3 0 3 C-0.33 3.99 -0.66 4.98 -1 6 C-2.98 6.33 -4.96 6.66 -7 7 C-5.37660195 5.29115995 -3.70680947 3.62553283 -2 2 C-1.34 2 -0.68 2 0 2 C0 1.34 0 0.68 0 0 Z " fill="#98E3FD" transform="translate(58,140)"/>
<path d="M0 0 C0.99 0.33 1.98 0.66 3 1 C2.67 2.32 2.34 3.64 2 5 C-1 5 -1 5 -3 4 C-3 3.34 -3 2.68 -3 2 C-2.01 1.34 -1.02 0.68 0 0 Z " fill="#56E7FD" transform="translate(108,121)"/>
<path d="M0 0 C0.66 0.33 1.32 0.66 2 1 C0.625 2.5 0.625 2.5 -1 4 C-1.66 4 -2.32 4 -3 4 C-3 4.66 -3 5.32 -3 6 C-4.65 6 -6.3 6 -8 6 C-5.54080489 3.3651481 -3.42227589 1.25483449 0 0 Z " fill="#93DEFA" transform="translate(165,77)"/>
<path d="M0 0 C2.64 0 5.28 0 8 0 C5.87219421 2.34058637 3.88437779 3.70700306 1 5 C0.67 3.35 0.34 1.7 0 0 Z " fill="#8CDDFD" transform="translate(150,78)"/>
<path d="M0 0 C1.9375 0.75 1.9375 0.75 4 2 C4.75 4.125 4.75 4.125 5 6 C-0.75 4.25 -0.75 4.25 -3 2 C-2.01 1.34 -1.02 0.68 0 0 Z " fill="#89EEFE" transform="translate(150,151)"/>
<path d="M0 0 C4.24822374 0.47202486 6.19989709 2.96655518 9 6 C8.01 6 7.02 6 6 6 C6 5.34 6 4.68 6 4 C4.35 4 2.7 4 1 4 C0.67 2.68 0.34 1.36 0 0 Z " fill="#8ADDF9" transform="translate(175,133)"/>
<path d="M0 0 C0.66 0 1.32 0 2 0 C2.33 1.65 2.66 3.3 3 5 C1.35 5.66 -0.3 6.32 -2 7 C-2 3.89448334 -1.4606285 2.64738916 0 0 Z " fill="#45D8F8" transform="translate(135,125)"/>
<path d="M0 0 C3.81684226 1.55500981 6.19195732 4.03595495 9 7 C6.69 6.67 4.38 6.34 2 6 C1.855625 5.38125 1.71125 4.7625 1.5625 4.125 C1.06847775 1.96741678 1.06847775 1.96741678 0 0 Z " fill="#A4E9FD" transform="translate(96,93)"/>
<path d="M0 0 C0.99 0.66 1.98 1.32 3 2 C-5.57142857 3.42857143 -5.57142857 3.42857143 -9 1 C-5.98131566 -0.50934217 -3.32702771 -0.17510672 0 0 Z " fill="#6FEDFE" transform="translate(41,70)"/>
<path d="M0 0 C0 1.33333333 0 2.66666667 0 4 C-3.375 4.125 -3.375 4.125 -7 4 C-7.66 3.34 -8.32 2.68 -9 2 C-6.03 1.34 -3.06 0.68 0 0 Z " fill="#95EBFE" transform="translate(143,43)"/>
<path d="M0 0 C1.65 0.33 3.3 0.66 5 1 C4.01 1.33 3.02 1.66 2 2 C2.99 3.65 3.98 5.3 5 7 C2.5625 6.1875 2.5625 6.1875 0 5 C-0.33 4.01 -0.66 3.02 -1 2 C-0.67 1.34 -0.34 0.68 0 0 Z " fill="#79E9FD" transform="translate(139,18)"/>
<path d="M0 0 C2.16874252 0.50603992 3.99967627 0.99983813 6 2 C6 2.66 6 3.32 6 4 C5.34 4 4.68 4 4 4 C4 4.66 4 5.32 4 6 C3.34 6 2.68 6 2 6 C1.34 4.02 0.68 2.04 0 0 Z " fill="#9ADBF5" transform="translate(36,146)"/>
<path d="M0 0 C1.98 0 3.96 0 6 0 C6 0.66 6 1.32 6 2 C7.32 2.33 8.64 2.66 10 3 C8 4 8 4 4.4375 3.1875 C1 2 1 2 0 0 Z " fill="#1AD9FD" transform="translate(164,143)"/>
<path d="M0 0 C1 3 1 3 -0.4375 6.1875 C-1.2109375 7.5796875 -1.2109375 7.5796875 -2 9 C-2.97110486 5.97878489 -3.13617383 3.99536737 -2 1 C-1.34 0.67 -0.68 0.34 0 0 Z " fill="#93E7FD" transform="translate(233,130)"/>
<path d="M0 0 C0.66 0.33 1.32 0.66 2 1 C0.02 3.97 0.02 3.97 -2 7 C-2.99 6.34 -3.98 5.68 -5 5 C-4.34 5 -3.68 5 -3 5 C-2.87625 4.360625 -2.7525 3.72125 -2.625 3.0625 C-2.41875 2.381875 -2.2125 1.70125 -2 1 C-1.34 0.67 -0.68 0.34 0 0 Z " fill="#4CE4FD" transform="translate(169,75)"/>
<path d="M0 0 C0.66 0.33 1.32 0.66 2 1 C1.01 2.485 1.01 2.485 0 4 C-1.32 4 -2.64 4 -4 4 C-4 4.66 -4 5.32 -4 6 C-4.66 6 -5.32 6 -6 6 C-5.67 5.01 -5.34 4.02 -5 3 C-4.34 3 -3.68 3 -3 3 C-3 2.34 -3 1.68 -3 1 C-2.01 0.67 -1.02 0.34 0 0 Z " fill="#14D5FC" transform="translate(35,71)"/>
<path d="M0 0 C0.99 0.99 1.98 1.98 3 3 C2.67 3.99 2.34 4.98 2 6 C0.35 6 -1.3 6 -3 6 C-3 5.34 -3 4.68 -3 4 C-2.34 3.67 -1.68 3.34 -1 3 C-0.67 2.01 -0.34 1.02 0 0 Z " fill="#16C9FD" transform="translate(157,53)"/>
<path d="M0 0 C1.98 0.99 1.98 0.99 4 2 C4 2.66 4 3.32 4 4 C4.66 4 5.32 4 6 4 C6.33 5.32 6.66 6.64 7 8 C3.70851757 6.86500606 3.0040131 6.00716624 1.25 2.875 C0.8375 1.92625 0.425 0.9775 0 0 Z " fill="#9FE7FC" transform="translate(141,21)"/>
<path d="M0 0 C3.37503669 1.1858237 5.64722731 2.27573689 8 5 C5.69 4.34 3.38 3.68 1 3 C0.67 3.66 0.34 4.32 0 5 C0 3.35 0 1.7 0 0 Z " fill="#1CCAFD" transform="translate(138,15)"/>
<path d="M0 0 C2.31 0.33 4.62 0.66 7 1 C7 1.66 7 2.32 7 3 C7.66 3.33 8.32 3.66 9 4 C7.3125 4.8125 7.3125 4.8125 5 5 C2.25 2.5625 2.25 2.5625 0 0 Z " fill="#72E7FD" transform="translate(48,158)"/>
<path d="M0 0 C3.3 0.33 6.6 0.66 10 1 C9.01 1.495 9.01 1.495 8 2 C8 2.66 8 3.32 8 4 C3.91927658 3.44855089 3.08669204 3.08669204 0 0 Z " fill="#8CECFD" transform="translate(25,156)"/>
<path d="M0 0 C0.66 0.33 1.32 0.66 2 1 C1.67 1.66 1.34 2.32 1 3 C0.34 3 -0.32 3 -1 3 C-1.66 4.32 -2.32 5.64 -3 7 C-3.66 6.01 -4.32 5.02 -5 4 C-4.01 3.67 -3.02 3.34 -2 3 C-2 2.34 -2 1.68 -2 1 C-1.34 0.67 -0.68 0.34 0 0 Z " fill="#18CAFB" transform="translate(49,149)"/>
<path d="M0 0 C0.99 0 1.98 0 3 0 C3 3.3 3 6.6 3 10 C2.67 10 2.34 10 2 10 C2 7.69 2 5.38 2 3 C1.01 3 0.02 3 -1 3 C-0.67 2.01 -0.34 1.02 0 0 Z " fill="#29B5EF" transform="translate(67,134)"/>
<path d="M0 0 C1.67542976 0.28604898 3.34385343 0.61781233 5 1 C3.3545622 2.68762851 1.68711423 4.3540349 0 6 C-0.33 6 -0.66 6 -1 6 C-1.042721 4.33388095 -1.04063832 2.66617115 -1 1 C-0.67 0.67 -0.34 0.34 0 0 Z " fill="#71E2FA" transform="translate(127,123)"/>
<path d="M0 0 C3.16115776 1.36983503 3.9927092 1.9890638 6 5 C4.35 5 2.7 5 1 5 C0.67 3.35 0.34 1.7 0 0 Z " fill="#86ECFE" transform="translate(218,78)"/>
<path d="M0 0 C2.79872437 2.52788007 4.45773019 4.20411134 5 8 C3.68 7.67 2.36 7.34 1 7 C0.67 4.69 0.34 2.38 0 0 Z " fill="#90E3FD" transform="translate(182,39)"/>
<path d="M0 0 C-3.4019487 2.09350689 -6.05272412 2.17942163 -10 2 C-10 1.34 -10 0.68 -10 0 C-6.7169902 -1.6415049 -3.57454967 -0.51888624 0 0 Z " fill="#7CEAFE" transform="translate(82,41)"/>
<path d="M0 0 C1.98 0.66 3.96 1.32 6 2 C5.01 2.33 4.02 2.66 3 3 C2.67 3.66 2.34 4.32 2 5 C1.01 4.34 0.02 3.68 -1 3 C-0.67 2.01 -0.34 1.02 0 0 Z " fill="#57E8FD" transform="translate(132,20)"/>
<path d="M0 0 C2.97 0.495 2.97 0.495 6 1 C3.08235 2.9451 1.37462715 3.45276317 -2 4 C-2 3.34 -2 2.68 -2 2 C-1.34 2 -0.68 2 0 2 C0 1.34 0 0.68 0 0 Z " fill="#92DFFD" transform="translate(84,154)"/>
<path d="M0 0 C0.66 0.33 1.32 0.66 2 1 C1.01 2.485 1.01 2.485 0 4 C-3.625 4.6875 -3.625 4.6875 -7 5 C-4.88437775 2.67281553 -2.94982021 1.14186589 0 0 Z " fill="#54D8FB" transform="translate(54,145)"/>
<path d="M0 0 C1.32 0.66 2.64 1.32 4 2 C2.625 3.5 2.625 3.5 1 5 C0.34 5 -0.32 5 -1 5 C-1.33 4.01 -1.66 3.02 -2 2 C-1.34 1.34 -0.68 0.68 0 0 Z " fill="#5CE4FE" transform="translate(114,134)"/>
<path d="M0 0 C0.33 0 0.66 0 1 0 C1 2.31 1 4.62 1 7 C0.01 7.33 -0.98 7.66 -2 8 C-2.125 5.125 -2.125 5.125 -2 2 C-1.34 1.34 -0.68 0.68 0 0 Z " fill="#1ED9FD" transform="translate(233,123)"/>
<path d="M0 0 C0.75 1.75 0.75 1.75 1 4 C-0.9375 6.25 -0.9375 6.25 -3 8 C-2.25 2.25 -2.25 2.25 0 0 Z " fill="#89D7FD" transform="translate(24,92)"/>
<path d="M0 0 C2.125 0.375 2.125 0.375 4 1 C3.67 2.32 3.34 3.64 3 5 C1.35 4.01 -0.3 3.02 -2 2 C-1.34 1.34 -0.68 0.68 0 0 Z " fill="#24D0FB" transform="translate(63,87)"/>
<path d="M0 0 C1.8871875 0.0309375 1.8871875 0.0309375 3.8125 0.0625 C0.85538438 1.70534201 -1.80758426 2.7067194 -5.1875 3.0625 C-5.8475 2.4025 -6.5075 1.7425 -7.1875 1.0625 C-4.43671116 0.14557039 -2.82801087 -0.04636083 0 0 Z " fill="#19C4F7" transform="translate(188.1875,82.9375)"/>
<path d="M0 0 C0.99 0.495 0.99 0.495 2 1 C2 1.66 2 2.32 2 3 C2.99 3.33 3.98 3.66 5 4 C5 4.99 5 5.98 5 7 C3.68 6.67 2.36 6.34 1 6 C0.67 4.02 0.34 2.04 0 0 Z " fill="#4FD8FC" transform="translate(150,34)"/>
</svg>
